<?xml version="1.0" encoding="UTF-8" standalone="no" ?>
<!DOCTYPE svg PUBLIC "-//W3C//DTD SVG 1.1//EN" "http://www.w3.org/Graphics/SVG/1.1/DTD/svg11.dtd">
<svg xmlns="http://www.w3.org/2000/svg" xmlns:xlink="http://www.w3.org/1999/xlink" version="1.1" width="400" height="400" viewBox="0 0 400 400" xml:space="preserve">
<desc>Created with Fabric.js 3.6.2</desc>
<defs>
</defs>
<g transform="matrix(0.43 0 0 0.43 200 200)" id="_x32_18_x2C__delivery_x2C__time_x2C__shipping_x2C__transport_x2C__truck"  >
<path style="stroke: none; stroke-width: 1; stroke-dasharray: none; stroke-linecap: butt; stroke-dashoffset: 0; stroke-linejoin: miter; stroke-miterlimit: 4; fill: #C80C14; fill-rule: evenodd; opacity: 1;"  transform=" translate(-256, -256)" d="M 347.166 252.033 v 96.921 h 52.236 h 44.507 l -1.26 -21.435 l -6.549 -5.969 h -0.326 h -64.003 c -1.685 0 -3.096 -1.386 -3.096 -3.098 v -44.785 c 0 -1.712 1.411 -3.098 3.096 -3.098 c 1.713 0 3.099 1.386 3.099 3.098 v 41.687 h 57.353 l -20.25 -63.321 H 347.166 z M 183.42 378.373 c 0.607 -5.441 2.52 -10.504 5.443 -14.836 l 0.049 -0.024 c 0.379 -0.58 0.779 -1.134 1.207 -1.688 l 0.154 -0.201 l 0.074 -0.076 l 0.428 -0.553 l 0 0 l 0.228 -0.252 l 0.225 -0.277 l 0.053 -0.076 l 0.176 -0.176 l 0.225 -0.252 l 0.126 -0.15 l 0.102 -0.127 l 0.175 -0.176 l 0.077 -0.076 l 0.2 -0.201 l 0.024 -0.051 l 0.253 -0.252 l 0 0 l 0.228 -0.227 l 0.049 -0.05 l 0.203 -0.202 l 0.049 -0.05 l 0.024 -0.025 l 0.049 -0.024 l 0.053 -0.076 l 0.049 -0.051 l 0.049 -0.05 l 0.077 -0.051 v -0.025 l 0.049 -0.05 l 0.053 -0.051 l 0.049 -0.051 l 0.077 -0.05 l 0.049 -0.051 l 0.024 -0.024 l 0.025 -0.025 l 0.077 -0.076 l 0.049 -0.051 l 0.053 -0.049 l 0.074 -0.051 l 0 0 l 0.049 -0.051 l 0.077 -0.05 l 0.049 -0.052 l 0.053 -0.049 l 0.074 -0.076 l 0.053 -0.051 l 0.049 -0.05 l 0.074 -0.05 l 0.052 -0.051 l 0.049 -0.051 h 0.024 l 0.053 -0.051 l 0.049 -0.05 l 0.077 -0.051 l 0.049 -0.05 l 0.049 -0.051 l 0.024 -0.025 l 0.053 -0.025 l 0.049 -0.05 l 0.077 -0.051 l 0.225 -0.2 l 0.077 -0.052 l 0.049 -0.05 l 0.126 -0.102 l 0.078 -0.049 l 0.628 -0.504 l 0.049 -0.051 l 0.656 -0.479 h -35.439 v 23.223 H 183.42 z M 366.584 378.373 c 0.832 -7.683 4.307 -14.559 9.469 -19.722 c 1.26 -1.284 2.646 -2.444 4.106 -3.501 h -36.019 h -0.073 h -0.102 H 235.508 c 1.464 1.057 2.822 2.217 4.082 3.501 c 5.188 5.163 8.641 12.039 9.497 19.722 H 366.584 z M 427.688 364.974 c 0.428 0.704 0.831 1.409 1.183 2.141 l 0.126 0.227 l 0.053 0.101 l 0.429 0.957 l 0.024 0.025 c 1.41 3.099 2.341 6.448 2.72 9.949 h 15.589 l 5.945 -23.223 h -6.472 h -0.102 h -28.536 l 0.05 0.05 l 0.073 0.05 l 0.053 0.051 l 0 0 l 0.151 0.102 l 0.049 0.05 l 0.126 0.075 l 0 0 l 0.127 0.102 l 0.077 0.051 l 0.049 0.05 l 0.049 0.025 l 0.025 0.024 l 0.052 0.051 l 0.074 0.051 l 0.126 0.101 l 0.053 0.025 v 0.024 l 0.074 0.051 l 0.228 0.177 h 0.024 l 0.05 0.075 l 0.077 0.025 l 0.049 0.05 l 0.077 0.05 l 0.024 0.051 l 0.024 0.025 l 0.077 0.051 l 0.05 0.05 l 0.049 0.051 l 0.077 0.05 l 0.024 0.025 l 0.024 0.025 l 0.078 0.051 l 0.049 0.05 l 0.049 0.051 l 0.102 0.075 l 0.025 0.025 l 0.077 0.051 l 0.049 0.051 l 0.049 0.05 l 0.077 0.05 l 0.024 0.051 h 0.025 l 0.052 0.051 l 0.074 0.074 l 0.102 0.102 l 0.049 0.025 l 0.078 0.076 l 0.049 0.049 l 0.077 0.051 l 0.049 0.051 l 0.024 0.051 l 0.025 0.024 l 0.077 0.051 l 0.049 0.05 l 0.053 0.051 l 0.073 0.051 l 0.024 0.05 l 0.028 0.025 l 0.049 0.051 l 0.127 0.101 l 0.049 0.051 l 0.024 0.025 l 0.028 0.05 l 0.049 0.05 l 0.2 0.202 l 0.053 0.025 l 0.225 0.251 h 0.024 l 0.253 0.252 v 0.025 l 0.229 0.227 l 0.049 0.076 l 0.176 0.176 l 0.102 0.102 l 0.15 0.176 l 0.103 0.125 l 0.126 0.127 l 0.151 0.176 l 0.073 0.076 l 0.179 0.227 l 0.05 0.051 l 0.428 0.529 l 0.024 0.023 l 0.2 0.252 l 0.053 0.076 l 0.151 0.201 l 0.102 0.102 l 0.126 0.176 l 0.099 0.151 l 0.102 0.126 l 0.15 0.177 l 0.05 0.101 l 0.179 0.227 l 0.024 0.05 l 0.2 0.277 v 0.025 l 0.203 0.277 l 0.025 0.024 l 0.175 0.252 l 0.05 0.076 l 0.126 0.227 l 0.077 0.101 l 0.126 0.201 l 0.099 0.151 l 0.077 0.126 l 0.126 0.202 L 427.688 364.974 z M 237.575 172.869 c 0.881 4.055 1.46 8.211 1.712 12.442 v 0.177 l 0.049 0.83 v 0.177 l 0.024 0.151 v 0.176 v 0.102 v 0.051 v 0.176 l 0.028 0.177 v 0.151 v 0.176 v 0.176 v 0.102 v 0.05 v 0.177 l 0.024 0.15 v 0.176 v 0.178 v 0.15 v 0.152 v 0.023 v 0.151 v 0.177 v 0.176 v 0.152 v 0.176 v 0.176 l 0 0 v 1.008 l 0 0 l -0.024 1.033 l 0 0 l -0.028 1.007 v 0.025 l -0.049 1.007 l 0 0 l -0.049 1.008 l 0 0 l -0.077 1.008 l 0 0 l -0.074 1.008 l 0 0 l -0.102 1.007 l 0 0 l -0.102 1.008 l 0 0 l -0.126 0.981 v 0.025 l -0.126 0.983 l 0 0 l -0.151 0.981 l 0 0 l -0.151 0.982 l 0 0 l -0.176 0.982 l 0 0 l -0.175 0.982 l 0 0 l -0.204 0.957 l 0 0 l -0.2 0.982 l 0 0 l -0.228 0.957 l 0 0 l -0.225 0.957 l 0 0 l -0.228 0.957 l 0 0 l -0.253 0.957 l 0 0 l -0.249 0.932 l 0 0 l -0.277 0.957 l 0 0 l -0.302 0.933 l 0 0 l -0.277 0.932 l 0 0 l -0.33 0.933 l 0 0 l -0.302 0.906 l 0 0 l -0.327 0.907 v 0.024 l -0.354 0.907 l 0 0 l -0.351 0.906 l 0 0 l -0.354 0.882 l 0 0 l -0.376 0.907 l 0 0 l -0.379 0.881 l 0 0 l -0.403 0.882 l 0 0 l -0.404 0.882 l 0 0 l -0.4 0.882 l -0.428 0.856 l 0 0 l -0.428 0.856 l -0.456 0.855 l 0 0 l -0.453 0.857 l 0 0 l -0.453 0.83 l 0 0 l -0.477 0.832 l -0.481 0.831 l -0.502 0.831 l -0.505 0.806 l -0.502 0.807 l 0 0 l -0.53 0.806 l -0.53 0.807 l -0.526 0.78 l -0.555 0.78 l -0.555 0.781 l -0.579 0.756 l -0.579 0.781 l 0 0 l -0.579 0.755 l -0.579 0.73 l -0.607 0.756 l 0 0 l -0.628 0.729 l -0.604 0.705 l -0.632 0.731 l -0.628 0.704 l -0.656 0.706 l -0.653 0.705 l -0.656 0.681 l -0.681 0.68 c -14.382 14.357 -34.253 23.273 -56.19 23.273 h -0.404 h -0.404 h -0.228 h -0.175 l -0.404 -0.025 h -0.403 h -0.049 l -0.326 -0.025 h -0.404 h -0.277 l -0.126 -0.025 h -0.404 l -0.404 -0.025 h -0.073 l -0.302 -0.024 l -0.403 -0.025 l -0.327 -0.025 h -0.077 l -0.403 -0.024 l -0.375 -0.025 h -0.151 l -0.253 -0.025 l -0.379 -0.025 l -0.379 -0.051 h -0.025 l -0.403 -0.025 l -0.375 -0.05 l -0.404 -0.025 l -0.379 -0.05 l -0.404 -0.051 l 0 0 l -0.375 -0.051 l -0.403 -0.049 l -0.228 -0.025 h -0.151 l -0.4 -0.052 l -0.758 -0.126 l -0.404 -0.051 l -0.754 -0.125 l -0.404 -0.051 l -0.098 -0.024 l -0.277 -0.051 l -0.379 -0.05 c -10.149 -1.789 -19.646 -5.491 -28.083 -10.73 v 63.17 H 306.06 c 1.712 0 3.099 1.385 3.099 3.098 c 0 1.688 -1.387 3.074 -3.099 3.074 H 118.112 v 22.063 h 40.299 h 57.83 h 124.728 V 248.859 v -75.99 h -10.202 v 109.465 c 0 1.712 -1.383 3.098 -3.096 3.098 c -1.712 0 -3.099 -1.386 -3.099 -3.098 V 172.869 H 237.575 z M 116.701 249.162 h 0.025 l 0.024 0.025 l 0.024 0.024 l 0.025 0.025 l 0.053 0.025 h 0.024 l 0.024 0.024 c 8.261 6.02 17.86 10.352 28.234 12.493 h 0.053 l 0.302 0.051 l 1.386 0.277 l 0.098 0.024 l 0.253 0.025 l 0.656 0.127 h 0.074 l 0.706 0.125 h 0.126 l 0.909 0.15 h 0.024 l 0.375 0.051 l 0.354 0.051 l 0.151 0.025 l 0.2 0.025 l 0.73 0.075 l 0 0 l 0.354 0.05 l 0.579 0.051 l 0.126 0.025 l 0.379 0.025 l 0.351 0.025 l 0.049 0.024 l 0.33 0.025 l 0.351 0.025 l 0.252 0.024 h 0.126 l 0.351 0.025 l 0.379 0.025 h 0.074 l 0.277 0.025 l 0.379 0.025 h 0.277 h 0.077 l 0.375 0.025 l 0.354 0.025 h 0.126 h 0.249 l 0.379 0.024 h 0.326 h 0.025 h 0.379 l 0.379 0.025 h 0.151 h 0.2 h 0.379 h 0.379 c 20.225 0 38.559 -8.212 51.807 -21.46 l 0.632 -0.63 l 0.604 -0.629 l 0.604 -0.655 l 0.607 -0.629 l 0.579 -0.656 l 0.579 -0.654 l 0.555 -0.68 l 0.579 -0.68 l 0.554 -0.68 l 0.551 -0.682 l 0.53 -0.705 l 0.53 -0.705 l 0.53 -0.705 l 0.526 -0.705 l 0.505 -0.73 l 0.477 -0.73 l 0.505 -0.73 l 0.478 -0.73 l 0.477 -0.756 l 0.457 -0.755 l 0.453 -0.757 l 0.453 -0.755 l 0.428 -0.781 l 0.428 -0.78 l 0 0 l 0.428 -0.781 l 0.403 -0.781 l 0.404 -0.779 l 0.375 -0.807 l 0.403 -0.807 l 0.354 -0.805 l 0.375 -0.807 l 0.354 -0.831 l 0.327 -0.831 l 0 0 l 0.354 -0.832 l 0.302 -0.83 l 0.326 -0.832 l 0.302 -0.856 l 0.277 -0.831 l 0 0 l 0.302 -0.855 l 0.277 -0.857 l 0.253 -0.881 l 0.252 -0.856 l 0.249 -0.882 l 0 0 l 0.229 -0.856 l 0.228 -0.882 l 0.2 -0.882 l 0.2 -0.906 l 0.179 -0.882 l 0.175 -0.906 l 0.176 -0.882 v -0.025 l 0.151 -0.882 l 0 0 l 0.151 -0.906 l 0.126 -0.932 l 0 0 l 0.126 -0.907 l 0 0 l 0.102 -0.906 l 0.102 -0.932 l 0 0 l 0.098 -0.933 l 0 0 l 0.077 -0.932 l 0 0 l 0.049 -0.932 l 0 0 l 0.077 -0.932 l 0 0 l 0.024 -0.933 l 0 0 l 0.025 -0.932 l 0 0 l 0.024 -0.957 l 0 0 v -0.933 l 0 0 v -0.176 v -0.152 v -0.326 v -0.151 v -0.151 l 0 0 v -0.151 v -0.151 v -0.176 v -0.453 h -0.024 v -0.328 v -0.15 v -0.302 l -0.025 -0.151 v -0.025 v -0.151 l -0.024 -0.604 v -0.151 v -0.025 c -0.958 -18.739 -8.942 -35.614 -21.387 -48.058 c -10.753 -10.754 -24.833 -18.186 -40.577 -20.604 h -0.074 l -0.024 -0.023 l -1.614 -0.229 h -0.098 h -0.102 v -0.023 h -0.077 l -0.098 -0.025 h -0.102 l -0.477 -0.051 l -0.102 -0.025 h -0.049 h -0.053 l -0.098 -0.025 l -0.758 -0.075 h -0.024 h -0.074 l -0.379 -0.051 h -0.102 h -0.102 l -0.098 -0.024 h -0.102 h -0.049 h -0.025 l -0.102 -0.025 h -0.102 h -0.102 l -0.098 -0.025 h -0.102 h -0.077 l -0.098 -0.025 h -0.102 h -0.102 h -0.024 l -0.074 -0.025 h -0.102 h -0.102 h -0.102 l -0.074 -0.025 h -0.102 h -0.2 l -0.102 -0.025 h -0.074 h -0.028 l -0.4 -0.024 h -0.077 h -0.102 l -0.099 -0.025 h -0.102 h -0.102 h -0.025 h -0.074 h -0.102 l -0.102 -0.025 h -0.102 h -0.098 h -0.102 l -0.302 -0.024 h -0.077 h -0.024 h -0.074 h -0.404 l -0.102 -0.025 h -0.102 h -0.2 h -0.025 h -0.077 h -0.403 h -0.099 h -0.102 l -0.102 -0.025 h -0.099 h -0.052 h -0.049 h -0.102 h -0.102 h -0.098 h -0.204 h -0.098 h -0.102 h -0.102 h -0.098 h -0.102 h -0.102 h -0.102 h -0.098 h -0.204 h -0.098 h -0.102 h -0.102 h -0.049 h -0.052 h -0.099 l -0.102 0.025 h -0.102 h -0.098 h -0.102 h -0.102 h -0.2 h -0.078 h -0.024 h -0.2 h -0.102 l -0.102 0.025 h -0.375 h -0.126 h -0.024 h -0.053 l -0.302 0.024 h -0.102 h -0.098 h -0.102 l -0.102 0.025 h -0.098 h -0.077 h -0.025 h -0.102 h -0.102 l -0.073 0.025 h -0.102 h -0.102 h -0.099 h -0.102 l -0.2 0.024 h -0.028 h -0.074 l -0.102 0.025 h -0.074 h -0.102 h -0.102 l -0.099 0.025 h -0.102 h -0.102 h -0.102 l -0.074 0.025 h -0.024 h -0.077 h -0.102 l -0.098 0.025 h -0.102 H 153.8 l -0.098 0.025 h -0.077 h -0.151 l -0.102 0.025 l 0 0 h -0.098 h -0.102 l -0.102 0.024 h -0.074 h -0.102 l -0.102 0.025 h -0.098 l -0.102 0.025 h -0.102 h -0.024 h -0.077 l -0.098 0.025 l -0.379 0.024 l -0.102 0.025 h -0.098 l -0.102 0.025 h -0.077 l 0 0 l -0.098 0.025 h -0.102 h -0.102 l -0.098 0.025 l -0.204 0.025 h -0.074 l -0.102 0.025 h -0.102 l -0.049 0.023 h -0.049 h -0.102 l -0.077 0.026 h -0.098 l -0.102 0.025 h -0.102 l -0.102 0.024 l -0.478 0.051 l -0.102 0.025 l -0.375 0.051 l -0.102 0.025 h -0.077 l -0.049 0.023 h -0.049 l -0.102 0.025 h -0.102 l -0.098 0.025 l -0.457 0.076 h -0.098 l 0 0 c -15.389 2.568 -29.192 9.924 -39.745 20.477 c -13.276 13.274 -21.46 31.586 -21.46 51.836 c 0 20.227 8.184 38.537 21.46 51.811 C 110.78 244.451 113.651 246.92 116.701 249.162 z M 149.897 111.135 c 2.039 -0.252 4.106 -0.428 6.169 -0.529 h 0.126 h 0.102 l 0.102 -0.025 h 0.098 h 0.126 h 0.102 h 0.102 h 0.049 h 0.074 l 0.102 -0.024 h 0.102 h 0.102 h 0.123 h 0.102 h 0.102 h 0.102 l 0.123 -0.025 h 0.077 h 0.024 h 0.102 h 0.102 h 0.123 h 0.102 h 0.102 h 0.102 h 0.123 h 0.102 h 0.102 h 0.049 h 0.077 l 0.102 -0.025 h 0.098 h 0.102 h 0.126 h 0.102 h 0.098 h 0.102 h 0.126 h 0.102 h 0.098 h 0.102 h 0.126 h 0.102 h 0.099 h 0.102 h 0.126 h 0.102 l 0.099 0.025 h 0.077 h 0.049 h 0.102 h 0.102 h 0.098 h 0.126 h 0.102 h 0.102 h 0.098 h 0.126 h 0.102 l 0 0 h 0.102 l 0.098 0.025 h 0.126 h 0.102 h 0.102 h 0.098 h 0.126 h 0.102 l 0.102 0.024 h 0.074 h 0.049 h 0.102 h 0.102 h 0.102 h 0.123 l 0.102 0.025 h 0.102 h 0.102 l 1.611 0.102 h 0.126 h 0.102 c 1.46 0.125 2.92 0.252 4.355 0.428 v -10.932 h -20.099 V 111.135 z M 146.725 94.008 h 0.074 h 26.297 h 0.074 h 4.762 v -7.557 h -35.969 v 7.557 H 146.725 z M 160.728 128.916 c -0.2 -0.176 -0.477 -0.301 -0.779 -0.301 c -0.306 0 -0.583 0.125 -0.783 0.301 c -0.2 0.202 -0.302 0.479 -0.302 0.781 c 0 0.303 0.102 0.604 0.302 0.781 c 0.2 0.201 0.477 0.328 0.783 0.328 c 0.302 0 0.579 -0.127 0.779 -0.303 c 0.2 -0.202 0.302 -0.504 0.302 -0.807 C 161.029 129.396 160.928 129.118 160.728 128.916 z M 159.949 122.419 c 1.986 0 3.801 0.806 5.138 2.141 c 1.333 1.335 2.141 3.147 2.141 5.138 s -0.807 3.829 -2.141 5.139 c -1.337 1.335 -3.151 2.166 -5.138 2.166 c -1.99 0 -3.829 -0.831 -5.142 -2.141 c -1.333 -1.335 -2.141 -3.174 -2.141 -5.164 s 0.807 -3.803 2.116 -5.138 C 156.12 123.225 157.958 122.419 159.949 122.419 z M 221 190.777 c 0.203 -0.201 0.33 -0.479 0.33 -0.781 c 0 -0.328 -0.126 -0.604 -0.33 -0.78 c -0.2 -0.202 -0.478 -0.328 -0.779 -0.328 s -0.579 0.126 -0.754 0.303 c -0.204 0.202 -0.33 0.478 -0.33 0.806 c 0 0.303 0.126 0.58 0.302 0.756 c 0.204 0.201 0.481 0.328 0.783 0.328 S 220.8 190.953 221 190.777 z M 227.5 189.996 c 0 1.99 -0.807 3.803 -2.116 5.139 c -1.334 1.334 -3.173 2.141 -5.163 2.141 s -3.804 -0.807 -5.138 -2.141 c -1.337 -1.336 -2.141 -3.148 -2.141 -5.139 c 0 -2.015 0.804 -3.828 2.141 -5.139 c 1.334 -1.334 3.148 -2.166 5.138 -2.166 s 3.829 0.832 5.138 2.141 C 226.692 186.168 227.5 187.981 227.5 189.996 z M 159.166 251.051 c 0.2 0.176 0.477 0.302 0.783 0.302 c 0.302 0 0.579 -0.126 0.779 -0.302 c 0.2 -0.201 0.302 -0.479 0.302 -0.781 s -0.102 -0.578 -0.302 -0.781 c -0.2 -0.201 -0.477 -0.326 -0.779 -0.326 c -0.306 0 -0.583 0.125 -0.783 0.326 c -0.2 0.203 -0.302 0.479 -0.302 0.781 S 158.966 250.85 159.166 251.051 z M 159.949 257.549 c -1.99 0 -3.829 -0.806 -5.142 -2.141 c -1.333 -1.335 -2.141 -3.148 -2.141 -5.139 c 0 -2.016 0.807 -3.828 2.116 -5.138 c 1.337 -1.335 3.176 -2.142 5.166 -2.142 c 1.986 0 3.801 0.807 5.138 2.116 c 1.333 1.335 2.141 3.147 2.141 5.163 c 0 1.99 -0.807 3.804 -2.141 5.139 C 163.75 256.743 161.935 257.549 159.949 257.549 z M 98.894 189.216 c -0.204 0.177 -0.33 0.452 -0.33 0.78 c 0 0.303 0.126 0.58 0.33 0.756 c 0.2 0.201 0.478 0.328 0.779 0.328 s 0.579 -0.127 0.754 -0.303 c 0.204 -0.201 0.33 -0.504 0.33 -0.781 c 0 -0.302 -0.126 -0.604 -0.302 -0.78 c -0.204 -0.202 -0.481 -0.328 -0.783 -0.328 S 99.094 189.014 98.894 189.216 z M 92.394 189.996 c 0 -2.015 0.807 -3.828 2.116 -5.139 c 1.333 -1.334 3.148 -2.166 5.163 -2.166 c 1.99 0 3.804 0.832 5.138 2.141 c 1.337 1.336 2.141 3.175 2.141 5.164 c 0 1.99 -0.832 3.803 -2.141 5.139 c -1.333 1.311 -3.148 2.141 -5.138 2.141 s -3.829 -0.807 -5.138 -2.141 C 93.201 193.799 92.394 191.986 92.394 189.996 z M 406.684 374.721 c -1.867 -1.864 -4.436 -3.021 -7.281 -3.021 c -2.847 0 -5.416 1.157 -7.279 2.996 c -1.863 1.889 -2.997 4.459 -2.997 7.305 c 0 2.82 1.158 5.39 2.997 7.254 c 1.863 1.863 4.433 3.022 7.279 3.022 c 2.846 0 5.414 -1.159 7.281 -3.022 c 1.864 -1.839 2.997 -4.434 2.997 -7.254 c 0 -2.771 -1.084 -5.29 -2.846 -7.153 L 406.684 374.721 z M 399.402 365.502 c 4.559 0 8.664 1.864 11.661 4.836 l 0.18 0.176 c 2.87 2.973 4.632 7.028 4.632 11.486 c 0 4.533 -1.839 8.639 -4.812 11.611 c -2.997 2.996 -7.103 4.861 -11.661 4.861 c -4.531 0 -8.662 -1.865 -11.635 -4.836 c -2.997 -2.973 -4.836 -7.104 -4.836 -11.637 c 0 -4.559 1.839 -8.664 4.812 -11.662 C 390.74 367.366 394.871 365.502 399.402 365.502 z M 223.52 374.721 c -1.863 -1.864 -4.433 -3.021 -7.279 -3.021 c -2.821 0 -5.415 1.157 -7.254 3.021 c -1.864 1.838 -3.022 4.434 -3.022 7.279 c 0 2.745 1.109 5.264 2.871 7.127 l 0.151 0.127 c 1.839 1.863 4.433 3.022 7.254 3.022 c 2.846 0 5.416 -1.159 7.279 -2.997 c 1.864 -1.89 3.022 -4.459 3.022 -7.279 c 0 -2.771 -1.109 -5.29 -2.871 -7.153 L 223.52 374.721 z M 216.241 365.502 c 4.559 0 8.689 1.864 11.662 4.836 l 0.176 0.176 c 2.871 2.973 4.661 7.028 4.661 11.486 c 0 4.533 -1.864 8.639 -4.836 11.611 c -2.997 2.996 -7.127 4.861 -11.662 4.861 c -4.534 0 -8.665 -1.865 -11.637 -4.836 l -0.176 -0.202 c -2.871 -2.946 -4.661 -7.001 -4.661 -11.435 c 0 -4.559 1.864 -8.664 4.836 -11.662 C 207.576 367.366 211.707 365.502 216.241 365.502 z M 305.126 260.975 h -74.177 v 32.92 h 74.177 V 260.975 z M 131.006 170.754 c -1.334 -1.084 -1.538 -3.023 -0.478 -4.333 c 1.057 -1.335 2.997 -1.562 4.331 -0.478 l 26.146 20.955 h 33.4 c 1.712 0 3.095 1.385 3.095 3.098 c 0 1.688 -1.383 3.099 -3.095 3.099 h -34.456 c -0.681 -0.025 -1.362 -0.253 -1.941 -0.705 L 131.006 170.754 z M 68.417 265.987 c -1.712 0 -3.099 -1.386 -3.099 -3.099 c 0 -1.688 1.386 -3.099 3.099 -3.099 h 34 c 1.712 0 3.099 1.411 3.099 3.099 c 0 1.713 -1.386 3.099 -3.099 3.099 H 68.417 z M 29.097 296.035 c -1.712 0 -3.095 -1.385 -3.095 -3.098 s 1.383 -3.098 3.095 -3.098 h 62.29 c 1.688 0 3.099 1.385 3.099 3.098 s -1.411 3.098 -3.099 3.098 H 29.097 z M 89.246 413.132 c -1.712 0 -3.099 -1.386 -3.099 -3.099 c 0 -1.712 1.387 -3.098 3.099 -3.098 h 117.147 c -3.45 -1.36 -6.548 -3.4 -9.118 -5.995 c -4.836 -4.836 -7.857 -11.536 -7.857 -18.94 c 0 -3.955 0.856 -7.683 2.365 -11.058 l 0 0 l 0.151 -0.302 l 0 0 l 0.277 -0.579 l 0 0 l 0.277 -0.58 h 0.024 l 0.151 -0.276 v -0.025 l 0.151 -0.252 v -0.025 l 0.151 -0.252 v -0.025 l 0.154 -0.252 l 0.025 -0.025 l 0.151 -0.252 l 0.024 -0.024 l 0.151 -0.251 v -0.025 l 0.151 -0.252 l 0.024 -0.025 l 0.151 -0.227 l 0.024 -0.051 l 0.154 -0.227 l 0.024 -0.051 l 0.176 -0.227 l 0.024 -0.025 l 0.151 -0.227 l 0.024 -0.05 l 0.151 -0.202 l 0.028 -0.05 l 0.175 -0.202 l 0.025 -0.05 l 0.151 -0.228 l 0.049 -0.05 l 0.151 -0.202 l 0.053 -0.049 l 0.151 -0.178 l 0.049 -0.074 l 0.151 -0.177 l 0.053 -0.075 l 0.151 -0.177 l 0.049 -0.051 l 0.151 -0.202 l 0.052 -0.05 l 0.176 -0.177 l 0.049 -0.075 l 0.151 -0.177 l 0.053 -0.049 l 0.176 -0.177 l 0.049 -0.075 l 0.151 -0.152 l 0.077 -0.075 l 0.151 -0.151 l 0.049 -0.075 l 0.175 -0.177 l 0.053 -0.051 l 0.176 -0.15 l 0.049 -0.076 l 0.179 -0.15 l 0.074 -0.075 l 0.151 -0.151 l 0.077 -0.076 l 0.151 -0.15 l 0.074 -0.051 l 0.175 -0.151 l 0.077 -0.075 l 0.151 -0.126 l 0.077 -0.075 l 0.175 -0.127 l 0.225 -0.226 l 0.102 -0.075 l 0.151 -0.127 l 0.102 -0.075 l 0.151 -0.126 l 0.102 -0.076 l 0.151 -0.101 l 0.098 -0.101 l 0.154 -0.101 l 0.098 -0.075 l 0.151 -0.127 l 0.102 -0.075 l 0.151 -0.101 l 0.126 -0.076 l 0.151 -0.1 l 0.252 -0.201 l 0.126 -0.076 l 0.151 -0.101 l 0.098 -0.075 l 0.151 -0.102 l 0.126 -0.075 l 0.151 -0.076 l 0.53 -0.353 l 0.151 -0.076 l 0.126 -0.075 l 0.151 -0.101 l 0.126 -0.076 l 0.151 -0.074 l 0.126 -0.076 l 0.175 -0.075 l 0.126 -0.075 l 0.151 -0.076 l 0.126 -0.075 l 0.151 -0.076 l 0.126 -0.075 l 0.175 -0.076 l 0.126 -0.05 l 0.151 -0.101 l 0.126 -0.051 l 0.176 -0.076 l 0.126 -0.049 l 0.175 -0.102 l 0.102 -0.05 l 0.505 -0.202 l 0.099 -0.05 l 0.204 -0.075 l 0.102 -0.051 l 0.2 -0.076 l 0.102 -0.025 l 0.2 -0.101 l 0.102 -0.024 l 0.2 -0.076 l 0.102 -0.051 l 0.2 -0.05 l 0.102 -0.051 l 0.229 -0.075 l 0.074 -0.025 l 0.228 -0.076 l 0.098 -0.023 l 0.204 -0.076 l 0.102 -0.025 l 0.225 -0.075 l 0.077 -0.026 l 0.25 -0.049 l 0.077 -0.025 l 0.228 -0.076 h 0.074 l 0.252 -0.075 l 0.074 -0.025 l 0.253 -0.05 l 0.077 -0.025 l 0.249 -0.051 l 0.053 -0.025 l 0.277 -0.051 l 0.049 -0.024 l 0.277 -0.051 h 0.049 l 0.277 -0.075 h 0.053 l 0.277 -0.051 h 0.049 l 0.277 -0.051 l 0.049 -0.024 l 0.277 -0.025 l 0.053 -0.025 l 0.277 -0.025 h 0.049 l 0.302 -0.05 h 0.024 l 0.302 -0.051 h 0.028 l 0.302 -0.025 h 0.049 l 0.302 -0.025 l 0.025 -0.025 l 0.302 -0.024 h 0.028 h 0.327 h 0.024 l 0.327 -0.025 l 0 0 l 0.33 -0.025 h 0.025 h 0.326 l 0 0 h 0.354 l 0 0 l 0.326 -0.024 l 0.351 0.024 l 0 0 h 0.354 l 0 0 h 0.326 h 0.025 l 0.33 0.025 l 0 0 l 0.327 0.025 h 0.024 h 0.327 l 0 0 l 0.33 0.024 l 0.025 0.025 l 0.302 0.025 h 0.024 l 0.302 0.025 h 0.053 l 0.302 0.051 h 0.024 l 0.302 0.05 h 0.025 l 0.302 0.025 l 0.053 0.025 l 0.277 0.025 l 0.049 0.024 l 0.277 0.051 H 221 l 0.277 0.051 h 0.053 l 0.277 0.075 h 0.049 l 0.277 0.051 l 0.049 0.024 l 0.253 0.051 l 0.077 0.025 l 0.249 0.051 l 0.077 0.025 l 0.253 0.05 l 0.073 0.025 l 0.229 0.075 h 0.074 l 0 0 l 0.579 0.15 l 0.077 0.026 l 0.225 0.075 l 0.077 0.025 c 0.604 0.176 1.183 0.402 1.762 0.629 l 0.102 0.025 c 3.45 1.36 6.549 3.426 9.143 5.994 c 4.836 4.861 7.861 11.562 7.861 18.992 c 0 7.404 -3.025 14.104 -7.861 18.966 c -2.569 2.569 -5.665 4.609 -9.093 5.97 h 163.392 c -3.449 -1.36 -6.549 -3.4 -9.117 -5.995 c -4.836 -4.836 -7.834 -11.536 -7.834 -18.94 v -0.302 v -0.052 v -0.025 v -0.074 v -0.076 v -0.05 c 0.151 -7.179 3.124 -13.678 7.858 -18.413 c 2.821 -2.795 6.222 -4.986 10.052 -6.321 l 0.102 -0.051 l 0.828 -0.276 l 0.076 -0.025 l 0.254 -0.075 l 0.627 -0.177 h 0.078 l 0.249 -0.075 l 0.077 -0.025 l 0.253 -0.05 l 0.049 -0.025 l 0.253 -0.051 l 0.073 -0.025 l 0.253 -0.051 l 0.077 -0.024 l 0.249 -0.051 h 0.053 l 0.629 -0.126 h 0.023 l 0.303 -0.051 l 0.027 -0.024 l 0.303 -0.025 l 0.023 -0.025 l 0.303 -0.025 h 0.049 l 0.277 -0.05 h 0.053 l 0.302 -0.051 h 0.024 l 0.302 -0.025 h 0.024 l 0.33 -0.025 v -0.025 l 0.326 -0.024 h 0.025 h 0.326 l 0 0 l 0.33 -0.025 h 0.023 l 0.327 -0.025 l 0 0 h 0.354 l 0 0 h 0.326 l 0 0 l 0.352 -0.024 l 0.354 0.024 l 0 0 h 0.326 h 0.025 h 0.33 l 0 0 l 0.326 0.025 h 0.024 l 0.326 0.025 l 0 0 h 0.33 h 0.024 l 0.302 0.024 l 0.024 0.025 l 0.33 0.025 h 0.024 l 0.302 0.025 h 0.024 l 0.302 0.051 h 0.053 l 0.274 0.05 h 0.053 l 0.277 0.025 l 0.049 0.025 l 0.302 0.025 l 0.024 0.024 l 0.306 0.051 h 0.049 l 0.277 0.051 h 0.049 l 0.253 0.075 h 0.073 l 0.253 0.051 l 0.077 0.024 l 0.253 0.051 l 0.073 0.025 l 0.253 0.051 l 0.074 0.025 l 0.228 0.05 l 0.077 0.025 l 0.25 0.075 h 0.077 l 0.252 0.076 l 0.074 0.025 l 0.228 0.049 l 0.074 0.026 l 0.228 0.075 l 0.103 0.025 l 0.225 0.076 l 0.077 0.023 l 0.225 0.076 l 0.102 0.025 l 0.2 0.075 l 0.102 0.051 l 0.229 0.05 l 0.073 0.051 l 0.229 0.076 l 0.102 0.024 l 0.2 0.101 l 0.102 0.025 l 0.2 0.076 l 0.102 0.051 l 0.2 0.075 l 0.102 0.05 l 0.176 0.076 l 0.126 0.051 l 0.176 0.075 l 0.126 0.05 l 0.176 0.102 l 0.102 0.049 l 0.176 0.076 l 0.126 0.051 l 0.176 0.101 l 0.126 0.05 l 0.151 0.076 l 0.126 0.075 l 0.176 0.076 l 0.126 0.075 l 0.151 0.076 l 0.126 0.075 l 0.151 0.075 l 0.126 0.076 l 0.15 0.074 l 0.127 0.076 l 0.15 0.101 l 0.151 0.075 l 0.126 0.076 l 0.151 0.101 l 0.126 0.075 l 0.151 0.076 l 0.126 0.101 l 0.127 0.076 l 0.126 0.075 l 0.15 0.102 l 0.127 0.075 l 0.15 0.101 l 0.127 0.076 l 0.126 0.1 l 0.126 0.102 l 0.151 0.1 l 0.099 0.076 l 0.15 0.101 l 0.102 0.075 l 0.176 0.127 l 0.102 0.075 l 0.151 0.126 l 0.102 0.075 l 0.151 0.101 l 0.102 0.076 l 0.15 0.126 l 0.074 0.075 l 0.175 0.127 l 0.078 0.075 l 0.175 0.15 l 0.077 0.05 l 0.151 0.152 l 0.073 0.075 l 0.18 0.126 l 0.073 0.075 l 0.151 0.151 l 0.077 0.051 l 0.175 0.176 l 0.074 0.051 l 0.15 0.151 l 0.229 0.226 l 0.077 0.051 l 0.15 0.176 l 0.074 0.051 l 0.15 0.177 l 0.053 0.05 l 0.176 0.177 l 0.049 0.051 l 0.176 0.2 l 0.028 0.026 l 0.2 0.202 l 0.024 0.023 l 0.176 0.228 l 0.027 0.024 l 0.2 0.202 v 0.025 l 0.2 0.227 l 0.028 0.025 l 0.175 0.227 h 0.025 l 0.175 0.251 l 0 0 l 0.204 0.252 l 0 0 l 0.199 0.252 l 0 0 l 0.176 0.253 h 0.028 l 0.176 0.252 l 0 0 l 0.175 0.252 l 0.024 0.024 l 0.151 0.227 l 0.024 0.025 l 0.151 0.227 l 0.027 0.051 l 0.151 0.227 l 0.024 0.025 l 0.151 0.227 l 0.024 0.051 l 0.15 0.226 l 0.024 0.052 l 0.151 0.226 l 0.028 0.051 l 0.126 0.201 l 0.049 0.075 l 0.127 0.202 l 0.024 0.075 l 0.126 0.202 l 0.025 0.075 l 0.126 0.201 l 0.049 0.076 l 0.102 0.201 l 0.05 0.101 l 0.102 0.177 l 0.049 0.101 l 0.077 0.202 l 0.05 0.101 l 0.102 0.177 l 0.049 0.1 l 0.151 0.303 l 0.077 0.176 l 0.049 0.126 l 0.077 0.151 l 0.049 0.151 l 0.077 0.151 l 0.074 0.15 l 0.053 0.152 l 0.049 0.15 c 1.207 2.947 1.913 6.195 1.99 9.571 v 0.05 v 0.076 v 0.074 v 0.025 v 0.052 V 382 c 0 7.404 -2.997 14.104 -7.858 18.966 c -2.568 2.569 -5.643 4.609 -9.093 5.97 h 21.082 c 1.712 0 3.099 1.386 3.099 3.098 c 0 1.713 -1.387 3.099 -3.099 3.099 H 89.246 z M 249.89 425.549 c -1.688 0 -3.096 -1.385 -3.096 -3.098 c 0 -1.714 1.408 -3.099 3.096 -3.099 h 189.864 c 1.688 0 3.099 1.385 3.099 3.099 c 0 1.713 -1.41 3.098 -3.099 3.098 H 249.89 z M 459.172 425.549 c -1.713 0 -3.096 -1.385 -3.096 -3.098 c 0 -1.714 1.383 -3.099 3.096 -3.099 h 23.752 c 1.688 0 3.075 1.385 3.075 3.099 c 0 1.713 -1.387 3.098 -3.075 3.098 H 459.172 z M 78.44 425.171 c -1.713 0 -3.099 -1.385 -3.099 -3.098 s 1.386 -3.099 3.099 -3.099 h 89.969 c 1.688 0 3.099 1.386 3.099 3.099 s -1.411 3.098 -3.099 3.098 H 78.44 z M 227.85 254.779 h 80.375 c 1.713 0 3.1 1.385 3.1 3.098 v 39.115 c 0 1.713 -1.387 3.099 -3.1 3.099 H 227.85 c -1.712 0 -3.095 -1.386 -3.095 -3.099 v -39.115 C 224.755 256.164 226.138 254.779 227.85 254.779 z" stroke-linecap="round" />
</g>
</svg>