<?xml version="1.0" encoding="UTF-8"?>
<svg xmlns="http://www.w3.org/2000/svg" xmlns:xlink="http://www.w3.org/1999/xlink" width="562pt" height="103pt" viewBox="0 0 562 103" version="1.1">
<g id="surface1">
<path style=" stroke:none;fill-rule:evenodd;fill:rgb(90.19928%,90.59906%,90.99884%);fill-opacity:1;" d="M 283.671875 0.960938 L 510.808594 0.960938 C 538.425781 0.960938 561.003906 23.542969 561.003906 51.160156 L 561.003906 52.148438 C 561.003906 79.765625 538.425781 102.34375 510.808594 102.34375 L 304.953125 102.34375 L 304.953125 102.359375 L 244.839844 102.359375 L 244.839844 102.34375 L 50.46875 102.34375 C 22.851563 102.34375 0.273438 79.765625 0.273438 52.148438 L 0.273438 51.160156 C 0.273438 23.542969 22.851563 0.960938 50.46875 0.960938 L 283.671875 0.960938 "/>
<path style=" stroke:none;fill-rule:evenodd;fill:rgb(18.399048%,19.198608%,56.098938%);fill-opacity:1;" d="M 287.042969 5.71875 L 510.808594 5.71875 C 535.800781 5.71875 556.246094 26.167969 556.246094 51.160156 L 556.246094 52.148438 C 556.246094 77.140625 535.800781 97.585938 510.808594 97.585938 L 254.839844 97.585938 L 287.042969 5.71875 "/>
<path style=" stroke:none;fill-rule:evenodd;fill:rgb(92.89856%,12.5%,16.099548%);fill-opacity:1;" d="M 50.46875 5.71875 L 286.011719 5.71875 L 253.355469 97.585938 L 50.46875 97.585938 C 25.476563 97.585938 5.03125 77.140625 5.03125 52.148438 L 5.03125 51.160156 C 5.03125 26.167969 25.476563 5.71875 50.46875 5.71875 "/>
<path style=" stroke:none;fill-rule:evenodd;fill:rgb(90.19928%,90.59906%,90.99884%);fill-opacity:1;" d="M 58.296875 21.910156 C 55.617188 21.796875 52.949219 21.5625 50.273438 21.929688 C 47.164063 22.359375 44.566406 23.546875 42.175781 25.578125 C 39.800781 29.246094 39.539063 34.152344 43.359375 36.949219 C 47.574219 39.160156 52.433594 39.894531 56.929688 41.355469 C 59.960938 42.128906 63.015625 42.796875 66.039063 43.613281 C 69.53125 44.558594 73.003906 45.671875 76.300781 47.164063 C 81.734375 49.625 86.664063 53.117188 89.65625 58.394531 L 89.667969 58.414063 L 89.675781 58.4375 C 91.882813 63.464844 92.609375 69.097656 91.835938 74.53125 C 91.15625 79.3125 89.253906 84.171875 86.03125 87.832031 C 79.476563 94.828125 70.660156 97.960938 61.183594 98.003906 L 50.074219 98.070313 C 42.164063 98.113281 33.804688 95.53125 27.542969 90.644531 C 20.027344 84.777344 16.476563 76.394531 16.757813 66.921875 L 16.769531 66.472656 L 36.859375 66.472656 L 36.878906 66.914063 C 37.367188 77.566406 43.285156 81.667969 53.28125 82.898438 C 57.832031 83.230469 63.089844 82.851563 67.152344 80.578125 C 69.792969 79.097656 71.933594 76.75 72.304688 73.648438 C 72.558594 71.5 71.886719 69.386719 70.683594 67.621094 C 68.417969 65.179688 64.855469 63.640625 61.765625 62.566406 C 57.714844 61.15625 53.457031 60.175781 49.300781 59.113281 C 44.796875 57.960938 40.046875 56.699219 35.839844 54.699219 C 19.953125 48.925781 16.089844 33.761719 23.738281 19.417969 L 23.746094 19.40625 L 23.753906 19.390625 C 32.253906 6.003906 45.554688 5.019531 59.976563 5.320313 L 59.984375 5.324219 L 59.996094 5.324219 C 65.078125 5.664063 70.152344 7.140625 74.601563 9.621094 C 84.019531 14.875 89.457031 23.832031 89.324219 34.683594 L 89.316406 35.140625 L 69.445313 35.140625 L 69.398438 34.726563 C 69.175781 32.667969 68.871094 30.527344 68.042969 28.609375 C 66.261719 24.484375 62.492188 22.765625 58.296875 21.910156 Z M 131.269531 35.253906 L 145.867188 35.253906 L 139.289063 5.253906 L 156.65625 5.253906 L 170.453125 48.992188 L 106.316406 48.992188 L 121.351563 5.253906 L 138.195313 5.253906 Z M 156.300781 69.773438 L 120.464844 69.773438 L 111.636719 98.050781 L 90.039063 98.050781 L 104.492188 55.878906 L 172.941406 55.859375 L 184.804688 98.050781 L 163.398438 98.050781 Z M 209.539063 24.652344 L 209.539063 44.488281 L 246.257813 44.488281 L 246.257813 61.15625 L 209.539063 61.15625 L 209.539063 98.050781 L 190.25 98.050781 L 190.25 5.253906 L 251.722656 5.253906 L 251.726563 24.652344 Z M 302.023438 42.683594 L 288.085938 42.683594 L 268.847656 98.050781 L 252.839844 98.050781 L 285.714844 5.253906 L 301.089844 5.253906 L 292.828125 29.03125 L 306.882813 29.03125 L 315.34375 5.253906 L 330.71875 5.253906 L 303.480469 83.578125 L 287.472656 83.578125 Z M 381.273438 5.253906 L 396.648438 5.253906 L 369.410156 83.578125 L 353.402344 83.578125 Z M 403.804688 5.253906 L 419.179688 5.253906 L 391.945313 83.578125 L 375.933594 83.578125 Z M 339.652344 29.007813 L 352.414063 29.007813 L 352.4375 29.011719 C 355.917969 29.378906 358.765625 31.128906 360.445313 34.222656 C 361.765625 36.65625 362.226563 39.765625 361.648438 42.476563 L 361.644531 42.507813 L 350.085938 75.050781 L 350.078125 75.066406 C 347.546875 80.84375 342.792969 83.34375 336.59375 83.394531 L 322.765625 83.394531 C 320.089844 83.335938 317.421875 82.0625 315.714844 79.996094 C 313.492188 77.304688 313.300781 73.890625 314.28125 70.644531 L 314.285156 70.636719 L 325.539063 38.699219 L 325.558594 38.664063 C 328.527344 33.285156 333.003906 28.394531 339.652344 29.007813 Z M 342.351563 41.175781 C 340.320313 41.292969 339.136719 42.546875 338.394531 44.363281 L 330.949219 67.011719 L 330.929688 67.042969 C 329.542969 69.742188 330.78125 70.441406 333.269531 70.621094 C 336.238281 70.613281 336.710938 69.859375 337.675781 67.285156 L 345.273438 45.101563 L 345.28125 45.085938 C 346.457031 42.320313 344.988281 41.46875 342.351563 41.175781 Z M 427.886719 29.007813 L 429.828125 29.007813 C 433.679688 28.808594 436.773438 30.644531 439.296875 33.359375 L 440.859375 28.945313 L 456.234375 28.945313 L 437.507813 83.578125 L 421.496094 83.578125 L 422.425781 80.960938 C 420.175781 82.726563 418.164063 83.367188 414.621094 83.394531 L 411.003906 83.394531 C 408.328125 83.335938 405.65625 82.0625 403.949219 79.996094 C 401.726563 77.304688 401.535156 73.890625 402.515625 70.644531 L 402.519531 70.636719 L 413.773438 38.699219 L 413.792969 38.664063 C 416.761719 33.285156 421.242188 28.394531 427.886719 29.007813 Z M 430.585938 41.175781 C 428.554688 41.292969 427.371094 42.546875 426.628906 44.363281 L 419.183594 67.011719 L 419.164063 67.042969 C 417.777344 69.742188 419.019531 70.441406 421.503906 70.621094 C 424.472656 70.613281 424.945313 69.859375 425.910156 67.285156 L 433.507813 45.101563 L 433.515625 45.085938 C 434.691406 42.320313 433.222656 41.46875 430.585938 41.175781 Z M 478.835938 30.894531 C 481.773438 29.417969 485.140625 28.449219 488.410156 29.027344 C 491.144531 29.515625 493.433594 31.039063 494.957031 33.355469 C 497.003906 36.460938 497.421875 40.632813 495.949219 44.058594 L 482.285156 83.578125 L 466.695313 83.578125 L 480.269531 44.980469 L 480.273438 44.96875 C 481.539063 41.824219 475.863281 39.183594 474.253906 44.042969 L 460.164063 83.578125 L 444.375 83.578125 L 463.367188 28.917969 L 479.421875 28.917969 Z M 510.984375 83.535156 L 511.882813 81.117188 C 509.589844 82.90625 507.554688 83.5 504.195313 83.695313 L 500.5625 83.695313 C 497.855469 83.636719 495.210938 82.257813 493.546875 80.140625 C 491.375 77.378906 491.171875 73.921875 492.160156 70.644531 L 492.164063 70.636719 L 503.417969 38.699219 L 503.4375 38.664063 C 506.410156 33.285156 510.617188 28.886719 517.535156 29.007813 L 519.472656 29.007813 C 523.367188 29.035156 526.414063 30.640625 528.9375 33.355469 L 535.96875 12.808594 L 536.46875 13.148438 C 540.816406 16.09375 544.085938 19.445313 547.394531 23.480469 L 547.558594 23.679688 L 525.53125 87.261719 C 524.722656 89.828125 524.230469 93.0625 527.421875 94.0625 L 528.683594 94.460938 L 527.449219 94.9375 C 521.140625 97.378906 515.082031 98.226563 508.335938 98.050781 L 507.945313 98.039063 L 507.890625 97.652344 C 507.515625 95.097656 507.871094 92.378906 508.605469 89.914063 L 508.609375 89.898438 C 509.429688 87.699219 510.09375 85.773438 510.984375 83.535156 Z M 520.230469 41.175781 C 518.199219 41.292969 517.015625 42.546875 516.277344 44.363281 L 508.828125 67.011719 L 508.8125 67.042969 C 507.425781 69.742188 508.664063 70.441406 511.148438 70.621094 C 514.117188 70.613281 514.59375 69.859375 515.554688 67.285156 L 523.152344 45.101563 L 523.160156 45.085938 C 524.339844 42.320313 522.867188 41.46875 520.230469 41.175781 "/>
</g>
</svg>
