<?xml version="1.0" encoding="UTF-8"?>
<svg xmlns="http://www.w3.org/2000/svg" xmlns:xlink="http://www.w3.org/1999/xlink" width="285pt" height="158pt" viewBox="0 0 285 158" version="1.1">
<g id="surface1">
<path style=" stroke:none;fill-rule:evenodd;fill:rgb(12.156677%,39.208984%,67.381287%);fill-opacity:1;" d="M 107.800781 80.019531 L 178.21875 80.019531 L 193.179688 94.527344 L 93.746094 94.527344 Z M 115.410156 70.339844 C 106.664063 63.765625 103.804688 57.386719 103.828125 51.164063 C 103.859375 41.902344 110.921875 30.074219 127.839844 24.339844 L 112.429688 8.933594 C 101.109375 15.046875 86.460938 28.078125 85.675781 42.261719 C 84.894531 56.449219 95.222656 71.449219 108.746094 78.277344 Z M 127.292969 0.6875 L 137.117188 70.339844 L 150.140625 70.339844 L 159.964844 0.660156 L 143.464844 17.175781 Z M 171.285156 70.339844 C 180.03125 63.765625 182.890625 57.386719 182.867188 51.164063 C 182.835938 41.902344 175.777344 30.074219 158.859375 24.339844 L 174.265625 8.933594 C 185.585938 15.046875 200.234375 28.078125 201.019531 42.261719 C 201.804688 56.449219 191.472656 71.449219 177.949219 78.277344 Z M 14.957031 114.304688 L 35.234375 114.304688 L 29.40625 131.625 L 45.679688 114.304688 L 65.960938 114.304688 L 46.328125 133.492188 L 54.890625 156.035156 L 34.613281 156.035156 L 27.703125 136.675781 L 21.183594 156.035156 L 0.90625 156.035156 Z M 57.636719 156.035156 L 76.949219 156.035156 L 82.316406 139.691406 L 86.15625 139.691406 C 88.546875 139.71875 89.285156 141.664063 89.480469 143.550781 L 87.839844 156.035156 L 107.15625 156.035156 L 109.253906 140.078125 L 109.082031 140.078125 C 108.8125 137.484375 106.449219 135.539063 101.96875 134.246094 C 120.363281 129.828125 120.410156 114.304688 105.859375 114.304688 L 71.335938 114.304688 Z M 87.796875 122.964844 L 92.726563 122.964844 C 95.566406 122.964844 96.707031 125.269531 96.597656 126.710938 C 96.464844 128.503906 95.046875 132.039063 89.503906 132.039063 L 84.578125 132.039063 Z M 153.058594 112.984375 C 169.738281 112.984375 178.066406 121.640625 171.980469 136.382813 C 165.890625 151.125 152.125 157.449219 135.703125 157.449219 C 119.28125 157.449219 110.949219 149.570313 117.300781 133.789063 C 123.648438 118.011719 136.375 112.984375 153.058594 112.984375 Z M 149.023438 123.898438 C 153.484375 123.867188 153.199219 129.753906 151.152344 135.464844 C 149.171875 140.992188 145.578125 146.347656 140.601563 146.488281 C 135.453125 146.636719 135.882813 140.796875 137.875 135.019531 C 139.792969 129.453125 143.070313 123.9375 149.023438 123.898438 Z M 171.714844 156.035156 L 187.921875 156.035156 L 196.054688 131.144531 L 199.953125 156.035156 L 223.699219 156.035156 L 237.339844 114.304688 L 221.136719 114.304688 L 213.351563 138.117188 L 209.621094 114.304688 L 185.355469 114.304688 Z M 246.378906 114.304688 L 284.371094 114.304688 L 280.351563 124.523438 L 260.898438 124.523438 L 259.023438 129.992188 L 277.757813 129.992188 L 274.648438 140.207031 L 255.523438 140.207031 L 253.792969 145.265625 L 274.386719 145.265625 L 270.628906 156.035156 L 232.082031 156.035156 L 246.378906 114.304688 "/>
</g>
</svg>
