<svg xmlns:svg="http://www.w3.org/2000/svg" xmlns="http://www.w3.org/2000/svg" version="1.0" width="1024" height="184" viewBox="0 0 154.355 27.791761" id="svg2806">
  <defs id="defs2808"/>
  <g transform="translate(-511.54625,-66.90875)" id="layer1">
    <path d="M 0,0 C 0.585,0 1.13,0.558 1.13,1.206 L 1.13,3.174 C 1.13,3.81 0.585,4.322 0,4.322 L -2.636,4.322 C -3.264,4.322 -3.808,3.81 -3.808,3.174 L -3.808,2.494 L 0,0" transform="matrix(1.25,0,0,-1.25,572.62,72.31125)" id="path2580" style="fill:#ed1a29;fill-opacity:1;fill-rule:nonzero;stroke:none"/>
    <path d="M 0,0 C -0.629,0 -1.155,0.558 -1.155,1.206 L -1.155,3.174 C -1.155,3.81 -0.629,4.322 0,4.322 L 2.627,4.322 C 3.265,4.322 3.784,3.81 3.784,3.174 L 3.784,2.494 L 0,0" transform="matrix(1.25,0,0,-1.25,544.6225,72.31125)" id="path2584" style="fill:#ed1a29;fill-opacity:1;fill-rule:nonzero;stroke:none"/>
    <path d="M 0,0 C 0,-0.813 -0.189,-1.499 -1.03,-1.499 L -6.432,-1.499 C -7.223,-1.499 -7.411,-0.813 -7.411,0 L -7.411,16.823 C -7.411,17.591 -7.27,18.259 -6.432,18.259 L -0.989,18.259 C -0.147,18.259 -0.006,17.684 -0.006,16.829 L -0.001,11.512 L 6.711,17.684 C 7.411,18.259 7.505,18.259 8.297,18.259 L 14.147,18.259 C 14.94,18.259 15.224,17.918 14.382,17.141 L 7.772,11.066 C 7.533,10.827 7.494,10.52 7.678,10.211 L 15.752,-0.045 C 16.595,-1.047 15.661,-1.59 14.819,-1.499 L 11.054,-1.499 C 9.445,-1.499 9.702,-1.545 8.832,-0.495 L 3.097,6.789 L -0.001,3.961 L 0,0" transform="matrix(1.25,0,0,-1.25,520.81,92.05)" id="path2588" style="fill:#ed1a29;fill-opacity:1;fill-rule:nonzero;stroke:none"/>
    <path d="M 0,0 C -0.779,0 -1.42,0.639 -1.42,1.454 L -1.42,18.322 C -1.42,19.09 -0.779,19.757 0,19.757 L 16.847,19.757 C 17.697,19.757 18.336,19.09 18.336,18.322 L 18.336,16.264 C 18.336,15.465 17.697,14.795 16.847,14.795 L 6,14.795 L 6,12.082 L 14.331,12.082 C 15.157,12.082 15.841,11.402 15.841,10.608 L 15.841,9.111 C 15.841,8.341 15.157,7.652 14.331,7.652 L 6,7.656 L 6,4.939 L 16.847,4.936 C 17.697,4.936 18.336,4.306 18.336,3.535 L 18.336,1.454 C 18.336,0.639 17.697,0 16.847,0 L 0,0" transform="matrix(1.25,0,0,-1.25,616.74,93.92375)" id="path2592" style="fill:#ed1a29;fill-opacity:1;fill-rule:nonzero;stroke:none"/>
    <path d="M 0,0 C -0.794,0 -1.494,0.639 -1.494,1.454 L -1.494,18.322 C -1.494,19.09 -0.794,19.757 0,19.757 L 4.435,19.757 C 5.227,19.757 5.929,19.09 5.929,18.322 L 5.929,4.939 L 14.271,4.939 C 15.113,4.939 15.794,4.258 15.794,3.494 L 15.794,1.454 C 15.794,0.639 15.113,0 14.271,0 L 0,0" transform="matrix(1.25,0,0,-1.25,646.15875,93.92375)" id="path2596" style="fill:#ed1a29;fill-opacity:1;fill-rule:nonzero;stroke:none"/>
    <path d="M 0,0 L -8.054,0 C -8.853,0 -9.596,-0.644 -9.596,-1.412 L -9.596,-2.527 C -9.596,-3.65 -8.333,-3.965 -8.165,-3.965 C -7.734,-3.965 -6.722,-3.965 -6.722,-3.965 C -7.677,-5.257 -9.698,-6.097 -11.431,-6.097 C -14.329,-6.097 -16.678,-3.747 -16.678,-0.848 C -16.678,2.05 -14.329,4.4 -11.431,4.4 C -9.781,4.4 -8.312,3.638 -7.349,2.45 C -7.309,2.438 -6.923,1.647 -6.453,1.647 C -6.453,1.647 -2.048,1.567 -0.419,1.605 C 1.176,1.645 1.082,2.385 1.082,2.385 C 0.283,6.355 -4.348,9.632 -11.226,9.632 C -18.518,9.632 -24.331,6.051 -24.423,-1.053 C -24.423,-6.741 -18.469,-11.583 -11.226,-11.36 C -7.668,-11.36 -6.025,-10.899 -3.034,-8.85 C -2.468,-8.4 -2.847,-10.899 -0.704,-10.899 L 0,-10.899 C 0.799,-10.899 1.508,-10.263 1.508,-9.445 L 1.508,-1.412 C 1.508,-0.644 0.799,0 0,0" transform="matrix(1.25,0,0,-1.25,608.44875,80.49125)" id="path2600" style="fill:#ed1a29;fill-opacity:1;fill-rule:nonzero;stroke:none"/>
    <path d="M 0,0 C -7.139,0 -12.966,-5.054 -12.966,-10.594 C -12.966,-16.161 -7.093,-20.993 0.045,-20.993 C 7.167,-20.993 12.965,-16.161 12.965,-10.594 C 12.965,-5.054 7.167,0 0,0 z M -0.039,-15.745 C -2.915,-15.745 -5.248,-13.35 -5.248,-10.5 C -5.248,-7.658 -2.915,-5.248 -0.039,-5.248 C 2.861,-5.248 5.248,-7.658 5.248,-10.5 C 5.248,-13.35 2.861,-15.745 -0.039,-15.745" transform="matrix(1.25,0,0,-1.25,558.625,68.4525)" id="path2604" style="fill:#ed1a29;fill-opacity:1;fill-rule:nonzero;stroke:none"/>
  </g>
</svg>