<svg xmlns:svg="http://www.w3.org/2000/svg" xmlns="http://www.w3.org/2000/svg" version="1.0" width="660" height="115" id="svg2" xml:space="preserve"><defs id="defs5"/><path d="M 602.09125,64.0025 L 613.73625,20.54 L 632.985,20.54 L 632.325,23.8775 C 634.1775,22.4025 636.22,21.30375 638.44,20.55625 C 640.65375,19.8175 643.0325,19.44125 645.565,19.44125 C 650.56125,19.44125 653.87,20.79875 655.48375,23.515 C 657.09875,26.23375 657.11125,30.5125 655.545,36.373625 L 654.53,40.16375 L 637.36375,40.16375 L 637.44375,39.866875 C 638.03,37.668125 638.0975,36.023125 637.62,34.949875 C 637.14375,33.876125 636.135,33.34875 634.59375,33.34875 C 632.955,33.34875 631.60875,33.967375 630.59375,35.195875 C 629.56625,36.436625 628.64875,38.55925 627.84125,41.55925 L 621.83,64.0025 L 602.09125,64.0025 L 602.09125,64.0025 z M 597.72625,50.74575 C 594.95875,55.570875 590.59,59.231125 584.5925,61.72575 C 578.595,64.22375 571.15625,65.477125 562.285,65.477125 C 552.43875,65.477125 545.3625,63.459125 541.065,59.41075 C 536.7675,55.375125 535.60875,49.65925 537.58375,42.28525 C 539.56625,34.886375 543.7925,29.155 550.25375,25.11875 C 556.72125,21.07 564.87875,19.0525 574.72375,19.0525 C 585.1875,19.0525 592.50625,21.33 596.6775,25.89625 C 600.8475,30.4625 601.7425,37.16325 599.37625,45.99575 L 599.17125,46.760375 L 557.185,46.760375 C 556.555,49.112875 557.05,50.925375 558.6825,52.220375 C 560.30625,53.499125 562.90125,54.146625 566.4575,54.146625 C 568.8125,54.146625 570.84125,53.862375 572.56375,53.278375 C 574.28375,52.697375 575.635,51.857 576.6175,50.74575 L 597.72625,50.74575 L 597.72625,50.74575 z M 558.68875,37.47325 L 581.72625,37.47325 C 582.1,35.066 581.50875,33.215875 579.96,31.899 C 578.42125,30.5925 576.05,29.93125 572.8675,29.93125 C 569.44,29.93125 566.49875,30.57875 564.075,31.858 C 561.645,33.153 559.85,35.028375 558.68875,37.47325 L 558.68875,37.47325 z M 481.6275,64.0025 L 493.27375,20.54 L 512.52125,20.54 L 511.85875,23.8775 C 513.71625,22.4025 515.7575,21.30375 517.97625,20.55625 C 520.19125,19.8175 522.56875,19.44125 525.1025,19.44125 C 530.0975,19.44125 533.40625,20.79875 535.02,23.515 C 536.6325,26.23375 536.65,30.5125 535.08,36.373625 L 534.06375,40.16375 L 516.89875,40.16375 L 516.97875,39.866875 C 517.5675,37.668125 517.6325,36.023125 517.1575,34.949875 C 516.6825,33.876125 515.67375,33.34875 514.1325,33.34875 C 512.4925,33.34875 511.14875,33.967375 510.1325,35.195875 C 509.10375,36.436625 508.185,38.55925 507.38,41.55925 L 501.36625,64.0025 L 481.6275,64.0025 L 481.6275,64.0025 z M 416.37,64.0025 L 431.51,7.50125 L 450.91375,7.50125 L 446.21375,25.0425 C 449.29875,23.23 452.36375,21.885 455.40375,21.0075 C 458.445,20.13875 461.57625,19.7 464.81,19.7 C 471.17375,19.7 475.40875,21.31625 477.5175,24.55 C 479.6125,27.78375 479.725,32.919 477.8425,39.9425 L 471.39625,64.0025 L 451.99375,64.0025 L 457.46625,43.57725 C 458.325,40.37175 458.3925,38.145625 457.67375,36.917125 C 456.9575,35.675875 455.3,35.053875 452.70125,35.053875 C 449.8425,35.053875 447.42125,35.739375 445.4275,37.09675 C 443.43,38.470375 442.11375,40.343375 441.46875,42.749625 L 435.775,64.0025 L 416.37,64.0025 L 416.37,64.0025 z M 353.4925,42.28525 C 355.46875,34.91175 359.66375,29.195 366.08375,25.13125 C 372.49625,21.0825 380.56875,19.0525 390.29625,19.0525 C 400.05,19.0525 407.03625,21.07 411.2425,25.11875 C 415.45125,29.155 416.5675,34.886375 414.585,42.28525 C 412.61,49.65925 408.425,55.375125 402.05375,59.41075 C 395.6775,63.459125 387.61125,65.477125 377.85625,65.477125 C 368.12875,65.477125 361.14125,63.459125 356.89875,59.41075 C 352.65,55.375125 351.5175,49.65925 353.4925,42.28525 L 353.4925,42.28525 z M 373.995,42.28525 C 373.19375,45.272625 373.46625,47.63825 374.7875,49.41275 C 376.12375,51.184625 378.32,52.062625 381.38625,52.062625 C 384.43875,52.062625 387.10625,51.184625 389.3925,49.41275 C 391.66375,47.63825 393.205,45.272625 394.005,42.28525 C 394.80875,39.28575 394.54375,36.89175 393.215,35.145125 C 391.875,33.386375 389.68,32.5055 386.6275,32.5055 C 383.56125,32.5055 380.89375,33.386375 378.61125,35.145125 C 376.34625,36.89175 374.79875,39.28575 373.995,42.28525 L 373.995,42.28525 z M 283.24375,64.0025 L 298.38375,7.50125 L 317.78625,7.50125 L 313.33875,24.09875 C 316.1125,22.5325 318.9075,21.37 321.7675,20.59375 C 324.6125,19.82875 327.60125,19.44125 330.73,19.44125 C 338.1025,19.44125 343.425,21.5 346.68,25.61125 C 349.93375,29.73875 350.62,35.28725 348.745,42.28525 C 346.89375,49.1915 343.255,54.7155 337.8225,58.86775 C 332.38875,63.020125 326.04875,65.101625 318.79125,65.101625 C 315.39125,65.101625 312.38125,64.65 309.7625,63.756 C 307.1425,62.862375 304.90375,61.520625 303.03125,59.720875 L 301.7425,64.0025 L 283.24375,64.0025 L 283.24375,64.0025 z M 308.465,42.28525 C 307.68625,45.194 307.9675,47.524 309.3225,49.271125 C 310.67625,51.029875 312.835,51.907875 315.82,51.907875 C 318.8475,51.907875 321.50125,51.029875 323.78625,49.271125 C 326.05,47.524 327.58125,45.194 328.36,42.28525 C 329.1475,39.34825 328.865,37.021125 327.53625,35.2745 C 326.19125,33.528375 324.005,32.66025 320.97875,32.66025 C 317.9925,32.66025 315.365,33.528375 313.0725,35.2745 C 310.7825,37.021125 309.2525,39.34825 308.465,42.28525 L 308.465,42.28525 z M 218.5975,50.135875 L 242.2925,50.09825 C 242.04125,51.611 242.4075,52.710125 243.4075,53.36975 C 244.405,54.042125 246.21625,54.3775 248.8425,54.3775 C 251.04125,54.3775 252.77375,54.134375 254.03125,53.64175 C 255.28875,53.152 256.0425,52.41325 256.31,51.418125 C 256.7675,49.710125 254.12,48.582625 248.37625,48.05525 C 247.2475,47.925375 246.3925,47.834125 245.7975,47.783375 C 245.745,47.783375 245.69375,47.783375 245.6425,47.783375 C 236.39625,46.851625 230.3075,45.635875 227.3675,44.1485 C 225.64375,43.293125 224.52125,41.934625 223.97,40.084625 C 223.41375,38.249625 223.46375,36.07675 224.1375,33.5665 C 225.48125,28.5475 228.7725,24.86375 233.98625,22.545 C 239.21375,20.2175 246.8475,19.0525 256.91,19.0525 C 266.40375,19.0525 273.16,20.24375 277.15625,22.61125 C 281.16375,24.98875 282.65,28.665 281.6125,33.645625 L 259.285,33.645625 C 259.55,32.18325 259.16125,31.1225 258.10875,30.4625 C 257.06875,29.8025 255.19,29.48 252.48625,29.48 C 250.185,29.48 248.43625,29.7225 247.23125,30.215 C 246.02625,30.7075 245.27875,31.47 245.00125,32.5055 C 244.55375,34.175875 246.8,35.208625 251.75,35.6095 C 252.78125,35.7135 253.575,35.792625 254.12,35.843375 C 254.5125,35.86825 255.1325,35.922 255.96625,35.997625 C 265.90375,36.904375 271.6375,37.655875 273.1775,38.236875 C 276.19875,39.414625 278.14875,40.873625 279.05625,42.6075 C 279.94875,44.340875 280,46.709625 279.19625,49.710125 C 277.70625,55.270625 274.18625,59.281875 268.63125,61.76375 C 263.08,64.2365 254.74125,65.477125 243.59125,65.477125 C 233.69625,65.477125 226.755,64.248625 222.77375,61.779375 C 218.80125,59.3195 217.41125,55.438125 218.5975,50.135875 L 218.5975,50.135875 z M 153.57375,50.135875 L 177.2675,50.09825 C 177.0175,51.611 177.3825,52.710125 178.38375,53.36975 C 179.38,54.042125 181.1925,54.3775 183.81625,54.3775 C 186.01625,54.3775 187.75125,54.134375 189.0075,53.64175 C 190.265,53.152 191.01875,52.41325 191.285,51.418125 C 191.7425,49.710125 189.095,48.582625 183.3525,48.05525 C 182.2225,47.925375 181.3675,47.834125 180.7725,47.783375 C 180.72,47.783375 180.67,47.783375 180.6175,47.783375 C 171.3725,46.851625 165.28375,45.635875 162.34375,44.1485 C 160.62,43.293125 159.49625,41.934625 158.945,40.084625 C 158.38875,38.249625 158.44,36.07675 159.1125,33.5665 C 160.4575,28.5475 163.7475,24.86375 168.96,22.545 C 174.19,20.2175 181.82375,19.0525 191.88625,19.0525 C 201.38125,19.0525 208.1375,20.24375 212.13125,22.61125 C 216.13875,24.98875 217.62375,28.665 216.58875,33.645625 L 194.2625,33.645625 C 194.52375,32.18325 194.13625,31.1225 193.08375,30.4625 C 192.04625,29.8025 190.16625,29.48 187.4625,29.48 C 185.15875,29.48 183.41375,29.7225 182.20875,30.215 C 181.0025,30.7075 180.255,31.47 179.9775,32.5055 C 179.53,34.175875 181.775,35.208625 186.725,35.6095 C 187.7575,35.7135 188.5525,35.792625 189.09375,35.843375 C 189.4875,35.86825 190.10875,35.922 190.94125,35.997625 C 200.87875,36.904375 206.615,37.655875 208.15375,38.236875 C 211.17375,39.414625 213.125,40.873625 214.03125,42.6075 C 214.925,44.340875 214.975,46.709625 214.17125,49.710125 C 212.68125,55.270625 209.1625,59.281875 203.60875,61.76375 C 198.05625,64.2365 189.7175,65.477125 178.5675,65.477125 C 168.67125,65.477125 161.73125,64.248625 157.74875,61.779375 C 153.7775,59.3195 152.385,55.438125 153.57375,50.135875 L 153.57375,50.135875 z M 109.5225,14.3975 L 112.46875,3.40125 L 127.8875,3.40125 L 124.94125,14.3975 L 109.5225,14.3975 L 109.5225,14.3975 z M 129.83125,14.3975 L 132.7775,3.40125 L 148.23375,3.40125 L 145.2875,14.3975 L 129.83125,14.3975 L 129.83125,14.3975 z M 125.04,58.053375 C 121.9375,60.601625 118.515,62.465 114.77375,63.63975 C 111.03,64.8175 106.54,65.3985 101.27625,65.3985 C 94.1875,65.3985 89.16375,64.211 86.24125,61.842375 C 83.3225,59.4615 82.4925,55.893125 83.775,51.105625 C 84.19375,49.542125 84.79125,48.092875 85.54625,46.773125 C 86.30375,45.4405 87.17625,44.303375 88.17125,43.34675 C 90.15375,41.49575 92.51375,40.125125 95.235,39.232 C 97.97625,38.32525 102.83625,37.655875 109.8675,37.20125 C 112.17125,37.0465 115.16875,36.917125 118.8375,36.78725 C 126.25375,36.478125 130.185,35.467375 130.65375,33.72125 C 130.97125,32.53375 130.45,31.58625 129.10375,30.8625 C 127.755,30.1525 125.7575,29.78875 123.10625,29.78875 C 119.665,29.78875 117.13375,30.115 115.48125,30.77125 C 113.8425,31.43125 112.69125,32.5465 112.0075,34.134375 L 91.95875,34.134375 C 93.77375,28.8575 97.25625,25.08125 102.4075,22.79125 C 107.55,20.5025 115.33125,19.365 125.7425,19.365 C 131.4225,19.365 136.11375,19.76625 139.7825,20.55625 C 143.46125,21.355 146.095,22.5325 147.66875,24.09875 C 149.3875,25.79125 150.3825,27.8225 150.65875,30.215 C 150.92625,32.59675 150.46625,36.010375 149.27375,40.460625 L 144.77375,57.251125 C 144.34125,58.86775 144.1475,60.12125 144.21125,60.989875 C 144.26375,61.855125 144.56875,62.553375 145.14375,63.05875 L 144.89125,64.0025 L 124.70125,64.0025 C 124.56625,63.15 124.53125,62.218375 124.5925,61.220375 C 124.6425,60.2135 124.7925,59.164625 125.04,58.053375 L 125.04,58.053375 z M 128.7925,43.759875 C 126.505,44.76725 122.85625,45.4405 117.8675,45.76525 C 116.43875,45.841375 115.33125,45.92 114.54625,45.99575 C 111.63125,46.255 109.58,46.668625 108.40125,47.253 C 107.225,47.834125 106.4675,48.727625 106.14125,49.9435 C 105.7775,51.301875 106.10125,52.362375 107.12875,53.1105 C 108.16,53.85025 109.79375,54.22275 112.04375,54.22275 C 116.3125,54.22275 119.955,53.36975 122.965,51.6485 C 125.97375,49.93075 127.865,47.651 128.62375,44.821375 C 128.7025,44.5245 128.7625,44.303375 128.7875,44.16125 C 128.81375,44.019125 128.81,43.88975 128.7925,43.759875 L 128.7925,43.759875 z M 9.08725,64.0025 L 24.10525,7.95625 L 45.8225,7.95625 L 40.623375,27.3575 L 65.79425,7.95625 L 95.13,7.95625 L 66.31225,28.22625 L 82.41625,64.0025 L 55.393875,64.0025 L 46.37975,41.262375 L 34.83575,48.958125 L 30.8045,64.0025 L 9.08725,64.0025 L 9.08725,64.0025" id="Kässbohrer" style="fill:#ed1c24;fill-opacity:1;fill-rule:nonzero;stroke:none"/><path d="M 430.26,105.06412 L 437.29625,78.80875 L 446.31125,78.80875 L 442.98625,91.22125 L 451.18625,84.86725 L 463.26875,84.86725 L 453.41875,91.858 L 458.78875,105.06412 L 447.975,105.06412 L 445.24,97.208125 L 440.495,100.51962 L 439.27625,105.06412 L 430.26,105.06412 L 430.26,105.06412 z M 421.815,83.214 L 423.18875,78.087 L 432.38,78.087 L 431.00625,83.214 L 421.815,83.214 L 421.815,83.214 z M 415.96,105.06412 L 421.3725,84.86725 L 430.5625,84.86725 L 425.15125,105.06412 L 415.96,105.06412 L 415.96,105.06412 z M 385.4125,105.06412 L 390.82375,84.86725 L 399.84,84.86725 L 399.27875,86.9655 C 400.71375,86.11775 402.1375,85.489875 403.55125,85.083625 C 404.9625,84.678875 406.41875,84.477125 407.9225,84.477125 C 410.87875,84.477125 412.84375,85.227125 413.81,86.731125 C 414.77375,88.232 414.8175,90.62075 413.9425,93.883875 L 410.94625,105.06412 L 401.93,105.06412 L 404.47375,95.572875 C 404.87625,94.07 404.9125,93.03575 404.585,92.465875 C 404.2575,91.894625 403.49125,91.6115 402.295,91.6115 C 400.96625,91.6115 399.84,91.928875 398.91375,92.561125 C 397.98625,93.196375 397.37375,94.070875 397.075,95.188625 L 394.42875,105.06412 L 385.4125,105.06412 L 385.4125,105.06412 z M 355.18875,105.06412 L 362.22375,78.80875 L 371.24,78.80875 L 369.05625,86.959125 C 370.49,86.11775 371.91375,85.489875 373.3275,85.083625 C 374.74,84.678875 376.195,84.477125 377.69875,84.477125 C 380.65625,84.477125 382.62625,85.227125 383.60375,86.731125 C 384.58,88.2325 384.63,90.62075 383.755,93.883875 L 380.76,105.06412 L 371.7425,105.06412 L 374.28625,95.572875 C 374.68625,94.082625 374.71375,93.049 374.3825,92.477125 C 374.04875,91.902 373.28,91.6115 372.0725,91.6115 C 370.74375,91.6115 369.6175,91.928875 368.69125,92.561125 C 367.7625,93.196375 367.15125,94.070875 366.85125,95.188625 L 364.205,105.06412 L 355.18875,105.06412 L 355.18875,105.06412 z M 353.97875,96.186625 C 352.79625,99.365875 350.78625,101.76188 347.945,103.3575 C 345.10375,104.95325 341.45625,105.74962 336.99,105.74962 C 332.37875,105.74962 329.06125,104.80925 327.04625,102.92975 C 325.03125,101.05388 324.485,98.3985 325.40375,94.97175 C 326.31875,91.55775 328.2875,88.903 331.31125,87.01375 C 334.3375,85.122125 338.16,84.175875 342.77,84.175875 C 347.05625,84.175875 350.20375,84.908375 352.2075,86.376125 C 354.20875,87.840875 355.02875,90.0255 354.6825,92.90975 L 345.01125,92.90975 C 344.8925,91.985 344.5325,91.28725 343.92875,90.824375 C 343.32625,90.3615 342.48125,90.1275 341.3875,90.1275 C 339.7825,90.1275 338.405,90.553875 337.265,91.4015 C 336.11625,92.2545 335.3425,93.43325 334.94125,94.935625 C 334.55125,96.39025 334.68875,97.5475 335.35125,98.404375 C 336.015,99.261375 337.09875,99.69 338.61375,99.69 C 339.87,99.69 341.01125,99.3775 342.04625,98.74625 C 343.0725,98.12125 343.8425,97.268125 344.34375,96.186625 L 353.97875,96.186625 L 353.97875,96.186625 z M 322.0775,98.903375 C 320.79125,101.14562 318.76,102.84675 315.97375,104.007 C 313.18625,105.16662 309.73,105.74962 305.60625,105.74962 C 301.0325,105.74962 297.745,104.80925 295.7475,102.92975 C 293.75125,101.05388 293.21,98.3985 294.12875,94.97175 C 295.05,91.53375 297.015,88.872125 300.01625,86.99475 C 303.02125,85.115375 306.81375,84.175875 311.3875,84.175875 C 316.25,84.175875 319.65125,85.234 321.58875,87.355625 C 323.5275,89.478125 323.94125,92.592375 322.84375,96.696875 L 322.74875,97.051875 L 303.23625,97.051875 C 302.94375,98.145625 303.17375,98.988375 303.93375,99.5885 C 304.68625,100.18462 305.89375,100.4845 307.54625,100.4845 C 308.64,100.4845 309.58375,100.35125 310.3825,100.08112 C 311.1825,99.810625 311.81125,99.4195 312.2675,98.903375 L 322.0775,98.903375 L 322.0775,98.903375 z M 303.93625,92.736 L 314.6425,92.736 C 314.815,91.61825 314.54125,90.757 313.82125,90.145625 C 313.10625,89.53825 312.00375,89.231125 310.52625,89.231125 C 308.9325,89.231125 307.56375,89.530375 306.43875,90.1275 C 305.30875,90.72575 304.475,91.59975 303.93625,92.736 L 303.93625,92.736 z M 273.03625,105.06412 L 278.245,85.624125 L 268.825,85.624125 L 270.595,79.018125 L 299.5625,79.018125 L 297.7925,85.624125 L 288.3375,85.624125 L 283.12875,105.06412 L 273.03625,105.06412 L 273.03625,105.06412 z M 246.99125,105.03425 C 246.16875,105.16075 245.38125,105.2565 244.62375,105.32287 C 243.86625,105.38925 243.1425,105.419 242.4525,105.419 C 241.33375,105.419 240.3475,105.35313 239.495,105.215 C 238.635,105.08262 237.8925,104.87212 237.26375,104.59 C 236.37625,104.18075 235.83375,103.57975 235.63375,102.798 C 235.43,102.01087 235.57,100.72475 236.05,98.939625 L 238.16875,91.028375 L 234.94625,91.028375 L 236.46125,85.3785 L 239.6825,85.3785 L 241.4525,78.772625 L 250.54125,78.772625 L 248.77125,85.3785 L 252.01125,85.3785 L 250.4975,91.028375 L 247.2575,91.028375 L 246.1325,95.22425 C 245.5975,97.219875 245.41875,98.428375 245.60125,98.84925 C 245.78125,99.2755 246.31375,99.4865 247.19125,99.4865 L 248.4775,99.4865 L 246.99125,105.03425 L 246.99125,105.03425 z M 208.7525,105.06412 L 214.165,84.86725 L 223.10875,84.86725 L 222.8025,86.418625 C 223.665,85.733 224.6125,85.22225 225.64375,84.874125 C 226.67375,84.530375 227.77875,84.3565 228.95625,84.3565 C 231.27625,84.3565 232.815,84.987375 233.565,86.250625 C 234.31375,87.512375 234.32125,89.501625 233.5925,92.22525 L 233.12125,93.986 L 225.14375,93.986 L 225.18125,93.84775 C 225.455,92.82575 225.485,92.062625 225.26375,91.563625 C 225.04375,91.064625 224.57375,90.818 223.85875,90.818 C 223.095,90.818 222.47125,91.107 222,91.677875 C 221.52,92.2555 221.09375,93.240375 220.72,94.635375 L 217.92625,105.06412 L 208.7525,105.06412 L 208.7525,105.06412 z M 179.4975,94.97175 C 180.415,91.5455 182.365,88.88875 185.3475,87.001625 C 188.3275,85.11975 192.08,84.175875 196.6,84.175875 C 201.13125,84.175875 204.37875,85.113375 206.33375,86.99475 C 208.28875,88.87125 208.80875,91.53375 207.8875,94.97175 C 206.9675,98.3985 205.025,101.05475 202.06375,102.92975 C 199.1,104.81162 195.35125,105.74962 190.81875,105.74962 C 186.29875,105.74962 183.05125,104.81162 181.08,102.92975 C 179.105,101.05475 178.57875,98.3985 179.4975,94.97175 L 179.4975,94.97175 z M 189.025,94.97175 C 188.6525,96.3605 188.77875,97.461 189.3925,98.28375 C 190.01375,99.107 191.035,99.51625 192.45875,99.51625 C 193.87875,99.51625 195.1175,99.107 196.18,98.28375 C 197.235,97.461 197.95125,96.3605 198.32375,94.97175 C 198.6975,93.57775 198.57375,92.465875 197.95625,91.654375 C 197.33375,90.8365 196.3125,90.427375 194.89375,90.427375 C 193.47,90.427375 192.23,90.8365 191.16875,91.654375 C 190.11625,92.465875 189.3975,93.57775 189.025,94.97175 L 189.025,94.97175 z M 145.1,111.59875 L 152.26375,84.86725 L 160.85875,84.86725 L 160.40125,86.820375 C 161.6925,85.998125 163.0525,85.384375 164.4925,84.969875 C 165.93,84.561625 167.45125,84.3565 169.0575,84.3565 C 172.42875,84.3565 174.85625,85.324875 176.3475,87.2535 C 177.83875,89.18375 178.1525,91.7565 177.29125,94.97175 C 176.4225,98.211 174.72125,100.79063 172.18375,102.70175 C 169.645,104.61975 166.65875,105.57487 163.2325,105.57487 C 161.77875,105.57487 160.48625,105.39462 159.355,105.03963 C 158.22,104.67975 157.21125,104.13925 156.3125,103.40537 L 154.1175,111.59875 L 145.1,111.59875 L 145.1,111.59875 z M 158.5725,94.97175 C 158.21,96.324875 158.34125,97.406375 158.97125,98.217875 C 159.6,99.03575 160.6025,99.444 161.99125,99.444 C 163.39625,99.444 164.63125,99.03575 165.69125,98.217875 C 166.74375,97.406375 167.455,96.324875 167.8175,94.97175 C 168.1825,93.6075 168.0525,92.525 167.43375,91.7135 C 166.81,90.9025 165.79375,90.499625 164.3875,90.499625 C 162.99875,90.499625 161.77875,90.9025 160.71375,91.7135 C 159.64875,92.525 158.93875,93.6075 158.5725,94.97175 L 158.5725,94.97175 z M 116.81,98.62125 L 127.82125,98.602625 C 127.705,99.30525 127.87375,99.8165 128.33875,100.12312 C 128.8025,100.43613 129.64375,100.59187 130.86375,100.59187 C 131.88625,100.59187 132.6925,100.47762 133.27625,100.24962 C 133.86,100.02062 134.21125,99.678875 134.335,99.215875 C 134.5475,98.423 133.3175,97.8995 130.64875,97.653 C 130.1225,97.592375 129.72625,97.550875 129.45,97.5265 C 129.42625,97.5265 129.40125,97.5265 129.3775,97.5265 C 125.08125,97.093375 122.25125,96.528875 120.885,95.837 C 120.08375,95.441 119.5625,94.809625 119.30625,93.949875 C 119.0475,93.09625 119.07125,92.087 119.38375,90.9205 C 120.00875,88.588 121.5375,86.875125 123.96,85.799 C 126.39,84.717375 129.9375,84.175875 134.61375,84.175875 C 139.02625,84.175875 142.16625,84.729125 144.0225,85.82925 C 145.885,86.935625 146.575,88.64225 146.0925,90.957125 L 135.7175,90.957125 C 135.84125,90.277 135.66,89.78425 135.17125,89.478125 C 134.68875,89.1715 133.815,89.020625 132.55875,89.020625 C 131.48875,89.020625 130.67625,89.134375 130.115,89.363875 C 129.55625,89.592875 129.20875,89.947375 129.08,90.427375 C 128.8725,91.20275 129.915,91.68375 132.215,91.87025 C 132.695,91.918625 133.065,91.95475 133.31625,91.978125 C 133.5,91.990375 133.7875,92.01425 134.175,92.050375 C 138.7925,92.47175 141.45875,92.820375 142.17375,93.09 C 143.5775,93.637375 144.48375,94.317 144.905,95.12175 C 145.32,95.927875 145.34375,97.028375 144.97,98.423 C 144.27875,101.0075 142.6425,102.87025 140.06125,104.0245 C 137.48125,105.173 133.60625,105.74962 128.42375,105.74962 C 123.82625,105.74962 120.60125,105.17888 118.75125,104.03037 C 116.905,102.88825 116.2575,101.08413 116.81,98.62125 L 116.81,98.62125 z M 86.35,105.06412 L 91.7625,84.86725 L 100.77875,84.86725 L 100.21625,86.9655 C 101.6525,86.11775 103.07625,85.49225 104.49,85.083625 C 105.90125,84.68075 107.3575,84.477125 108.86,84.477125 C 111.8175,84.477125 113.78,85.228125 114.7475,86.731125 C 115.71,88.234 115.75625,90.62025 114.88125,93.883875 L 111.885,105.06412 L 102.86875,105.06412 L 105.41125,95.572875 C 105.815,94.07 105.85125,93.03625 105.52375,92.465875 C 105.195,91.894125 104.42875,91.6115 103.23375,91.6115 C 101.905,91.6115 100.78,91.93075 99.85375,92.561125 C 98.925,93.198875 98.31375,94.07 98.01375,95.188625 L 95.3675,105.06412 L 86.35,105.06412 L 86.35,105.06412 z M 73.331875,102.29937 C 71.890875,103.4835 70.300125,104.34875 68.560875,104.89612 C 66.821125,105.443 64.735625,105.714 62.288875,105.714 C 58.994875,105.714 56.6605,105.16075 55.3025,104.06062 C 53.945625,102.95425 53.560375,101.2955 54.156,99.070875 C 54.351375,98.343875 54.62775,97.6705 54.97875,97.05875 C 55.330875,96.439125 55.737125,95.90975 56.199,95.464 C 57.120375,94.605125 58.217125,93.968375 59.48175,93.553875 C 60.75475,93.132875 63.0145,92.820375 66.281,92.6095 C 67.351875,92.53775 68.744375,92.477125 70.45,92.417625 C 73.89675,92.273125 75.7235,91.80475 75.94075,90.99325 C 76.089125,90.439625 75.8465,90.000625 75.221,89.664625 C 74.594,89.333125 73.665875,89.165625 72.433375,89.165625 C 70.83425,89.165625 69.658,89.3155 68.890875,89.622125 C 68.12925,89.928375 67.594,90.445875 67.275625,91.185125 L 57.95875,91.185125 C 58.802,88.733 60.42075,86.977125 62.81575,85.91375 C 65.204375,84.84925 68.820625,84.320375 73.6595,84.320375 C 76.297625,84.320375 78.47875,84.507 80.183375,84.874125 C 81.892875,85.24575 83.1165,85.793125 83.8475,86.520625 C 84.64625,87.30775 85.10875,88.251625 85.2375,89.363875 C 85.36125,90.469875 85.1475,92.05675 84.59375,94.124125 L 82.50275,101.92637 C 82.301625,102.67737 82.21075,103.26087 82.2415,103.66325 C 82.265875,104.066 82.407,104.39175 82.675125,104.62662 L 82.557875,105.06412 L 73.174625,105.06412 C 73.112125,104.66813 73.0965,104.235 73.124375,103.77212 C 73.14775,103.30288 73.217625,102.816 73.331875,102.29937 L 73.331875,102.29937 z M 75.0755,95.656875 C 74.0125,96.126625 72.317625,96.439125 69.999375,96.589 C 69.33475,96.625625 68.820625,96.66175 68.455875,96.696875 C 67.101375,96.8175 66.14775,97.009375 65.599875,97.279875 C 65.053,97.550875 64.702,97.9655 64.550625,98.530375 C 64.381125,99.16175 64.5315,99.654375 65.009125,100.003 C 65.488625,100.34537 66.246875,100.51962 67.29325,100.51962 C 69.276625,100.51962 70.97,100.12312 72.368,99.323875 C 73.766375,98.5245 74.645375,97.466375 74.998375,96.1495 C 75.035,96.011375 75.061875,95.90975 75.074,95.843375 C 75.08625,95.778 75.08375,95.716875 75.0755,95.656875 L 75.0755,95.656875 z M 29.60675,105.06412 L 35.018375,84.86725 L 43.96275,84.86725 L 43.655125,86.418625 C 44.517875,85.733 45.466625,85.22225 46.497875,84.874125 C 47.527125,84.530375 48.632125,84.3565 49.809875,84.3565 C 52.130125,84.3565 53.66875,84.987375 54.41825,86.250625 C 55.16775,87.512375 55.175625,89.501625 54.446125,92.22525 L 53.973875,93.986 L 45.997375,93.986 L 46.0345,93.84775 C 46.308375,92.82575 46.338625,92.062625 46.1175,91.563625 C 45.89675,91.064625 45.428,90.818 44.71225,90.818 C 43.949,90.818 43.3245,91.107 42.853375,91.677875 C 42.373875,92.2555 41.9475,93.240375 41.574,94.635375 L 38.779125,105.06412 L 29.60675,105.06412 L 29.60675,105.06412 z M 7.50425,105.06412 L 12.71275,85.624125 L 3.29375,85.624125 L 5.06375,79.018125 L 34.030625,79.018125 L 32.261,85.624125 L 22.8055,85.624125 L 17.5965,105.06412 L 7.50425,105.06412 L 7.50425,105.06412" id="Transport Technik" style="fill:#231f20;fill-opacity:1;fill-rule:nonzero;stroke:none"/></svg>