<svg xmlns="http://www.w3.org/2000/svg" xmlns:xlink="http://www.w3.org/1999/xlink" version="1.0" id="图层_1" x="0px" y="0px" width="47.625px" height="45.875px" viewBox="0 0 47.625 45.875" enable-background="new 0 0 47.625 45.875" xml:space="preserve">
<path fill-rule="evenodd" clip-rule="evenodd" fill="#BDBEB7" d="M23.913,8.998L23.913,8.998L23.913,8.998  c3.888,0,7.344,1.584,9.864,4.104c2.592,2.52,4.104,6.048,4.104,9.936l0,0l0,0l0,0l0,0c0,3.816-1.512,7.344-4.104,9.864  c-2.52,2.52-5.976,4.104-9.864,4.104l0,0l0,0l0,0l0,0c-3.888,0-7.344-1.584-9.936-4.104c-2.52-2.52-4.104-6.048-4.104-9.864l0,0l0,0  l0,0l0,0c0-3.888,1.584-7.416,4.104-9.936C16.569,10.582,20.025,8.998,23.913,8.998L23.913,8.998L23.913,8.998L23.913,8.998z   M23.913,9.214L23.913,9.214L23.913,9.214L23.913,9.214L23.913,9.214c-3.816,0-7.272,1.584-9.72,4.032  c-2.52,2.52-4.104,5.976-4.104,9.792l0,0l0,0l0,0l0,0c0,3.816,1.584,7.272,4.104,9.72c2.448,2.52,5.904,4.032,9.72,4.032l0,0l0,0  l0,0l0,0c3.816,0,7.272-1.512,9.72-4.032c2.52-2.448,4.032-5.904,4.032-9.72l0,0l0,0l0,0l0,0c0-3.816-1.512-7.272-4.032-9.792  C31.185,10.798,27.729,9.214,23.913,9.214z"/>
<radialGradient id="SVGID_1_" cx="8.6235" cy="18.748" r="44.6652" gradientUnits="userSpaceOnUse">
	<stop offset="0" style="stop-color:#FFFFFF"/>
	<stop offset="0.041" style="stop-color:#FBFAF8"/>
	<stop offset="0.2247" style="stop-color:#F8F8F5"/>
	<stop offset="0.2867" style="stop-color:#DBDBD8"/>
	<stop offset="0.4133" style="stop-color:#A4A5A2"/>
	<stop offset="0.5197" style="stop-color:#7F807D"/>
	<stop offset="0.6004" style="stop-color:#686966"/>
	<stop offset="0.6461" style="stop-color:#5F5F5D"/>
	<stop offset="0.7394" style="stop-color:#565653"/>
	<stop offset="0.8995" style="stop-color:#393835"/>
	<stop offset="1" style="stop-color:#000000"/>
</radialGradient>
<path fill-rule="evenodd" clip-rule="evenodd" fill="url(#SVGID_1_)" d="M23.913,1.582c4.896,0,9.432,1.656,13.032,4.392  l2.376-2.376l4.176,4.176l-2.376,2.448c2.664,3.6,4.176,7.992,4.176,12.744c0,11.808-9.576,21.456-21.384,21.456  S2.529,34.774,2.529,22.966C2.529,11.158,12.105,1.582,23.913,1.582L23.913,1.582z M23.913,6.622c-9,0-16.344,7.344-16.344,16.344  c0,9.072,7.344,16.344,16.344,16.344s16.344-7.272,16.344-16.344C40.257,13.966,32.913,6.622,23.913,6.622z"/>
<linearGradient id="SVGID_2_" gradientUnits="userSpaceOnUse" x1="15.4736" y1="20.1245" x2="31.4872" y2="25.6384">
	<stop offset="0" style="stop-color:#DDDCD4"/>
	<stop offset="1" style="stop-color:#FFFFFF"/>
</linearGradient>
<path fill-rule="evenodd" clip-rule="evenodd" fill="url(#SVGID_2_)" d="M23.913,6.55L23.913,6.55L23.913,6.55  c4.536,0,8.64,1.8,11.664,4.824c2.952,2.952,4.824,7.056,4.824,11.664l0,0l0,0l0,0l0,0c0,4.536-1.872,8.64-4.824,11.664  c-3.024,2.952-7.128,4.824-11.664,4.824l0,0l0,0l0,0l0,0c-4.536,0-8.712-1.872-11.664-4.824c-2.952-3.024-4.824-7.128-4.824-11.664  l0,0l0,0l0,0l0,0c0-4.608,1.872-8.712,4.824-11.664l0,0C15.201,8.35,19.377,6.55,23.913,6.55L23.913,6.55L23.913,6.55L23.913,6.55z   M23.913,6.766L23.913,6.766L23.913,6.766L23.913,6.766L23.913,6.766c-4.464,0-8.568,1.8-11.52,4.752l0,0  c-2.952,2.952-4.752,6.984-4.752,11.52l0,0l0,0l0,0l0,0c0,4.464,1.8,8.568,4.752,11.52c2.952,2.88,7.056,4.752,11.52,4.752l0,0l0,0  l0,0l0,0c4.464,0,8.568-1.872,11.52-4.752c2.952-2.952,4.752-7.056,4.752-11.52l0,0l0,0l0,0l0,0c0-4.536-1.8-8.568-4.752-11.52  C32.481,8.566,28.377,6.766,23.913,6.766z"/>
<radialGradient id="SVGID_3_" cx="36.623" cy="36.748" r="49.019" gradientUnits="userSpaceOnUse">
	<stop offset="0" style="stop-color:#BDBEB9"/>
	<stop offset="1" style="stop-color:#818179"/>
</radialGradient>
<path fill-rule="evenodd" clip-rule="evenodd" fill="url(#SVGID_3_)" d="M23.913,1.438L23.913,1.438L23.913,1.438  c4.896,0,9.504,1.656,13.104,4.464l-0.072,0.072c-3.6-2.736-8.136-4.392-13.032-4.392c-11.808,0-21.384,9.576-21.384,21.384  c0,11.808,9.576,21.456,21.384,21.456s21.384-9.648,21.384-21.456c0-4.752-1.512-9.144-4.176-12.744l0.072-0.072  c2.664,3.6,4.248,7.992,4.248,12.816l0,0l0,0l0,0l0,0c0,5.976-2.448,11.376-6.336,15.264s-9.216,6.264-15.192,6.264l0,0l0,0l0,0l0,0  c-5.904,0-11.304-2.376-15.192-6.264c-3.888-3.96-6.336-9.288-6.336-15.264l0,0l0,0l0,0l0,0c0-5.904,2.448-11.304,6.336-15.192  C12.609,3.886,17.937,1.438,23.913,1.438L23.913,1.438L23.913,1.438z"/>
<radialGradient id="SVGID_4_" cx="31.624" cy="30.749" r="34.4225" gradientUnits="userSpaceOnUse">
	<stop offset="0" style="stop-color:#FFFFFF"/>
	<stop offset="0.1572" style="stop-color:#F1F1F2"/>
	<stop offset="0.2978" style="stop-color:#E4E5E6"/>
	<stop offset="0.335" style="stop-color:#CFD0D0"/>
	<stop offset="0.3996" style="stop-color:#AFB0AE"/>
	<stop offset="0.4637" style="stop-color:#969895"/>
	<stop offset="0.526" style="stop-color:#868784"/>
	<stop offset="0.5858" style="stop-color:#7C7D7A"/>
	<stop offset="0.6404" style="stop-color:#797A77"/>
	<stop offset="0.7377" style="stop-color:#5D5E5A"/>
	<stop offset="0.8456" style="stop-color:#41403C"/>
	<stop offset="0.9369" style="stop-color:#1A1917"/>
	<stop offset="1" style="stop-color:#000000"/>
</radialGradient>
<path fill-rule="evenodd" clip-rule="evenodd" fill="url(#SVGID_4_)" d="M23.913,6.694c9,0,16.344,7.272,16.344,16.344  c0,9-7.344,16.344-16.344,16.344S7.569,32.038,7.569,23.038C7.569,13.966,14.913,6.694,23.913,6.694L23.913,6.694z M23.913,8.998  c-7.704,0-13.968,6.264-13.968,14.04c0,7.704,6.264,13.968,13.968,13.968s13.968-6.264,13.968-13.968  C37.881,15.262,31.617,8.998,23.913,8.998z"/>
<g>
	<linearGradient id="SVGID_5_" gradientUnits="userSpaceOnUse" x1="4.4536" y1="28.2461" x2="4.4536" y2="28.1251">
		<stop offset="0" style="stop-color:#FFFFFF"/>
		<stop offset="0.17" style="stop-color:#F8F8F5"/>
		<stop offset="0.427" style="stop-color:#B2B3AD"/>
		<stop offset="0.4352" style="stop-color:#AEAFA9"/>
		<stop offset="0.5344" style="stop-color:#8A8A85"/>
		<stop offset="0.6334" style="stop-color:#6C6D67"/>
		<stop offset="0.7305" style="stop-color:#52524D"/>
		<stop offset="0.8252" style="stop-color:#3D3C37"/>
		<stop offset="0.9163" style="stop-color:#22211E"/>
		<stop offset="1" style="stop-color:#141311"/>
	</linearGradient>
	<path opacity="0.67" fill-rule="evenodd" clip-rule="evenodd" fill="url(#SVGID_5_)" d="M4.375,28.155   c0,0.02,0.005,0.039,0.015,0.056c0.009,0.017,0.025,0.025,0.046,0.025c0.016,0,0.031-0.004,0.047-0.012   c0.016-0.008,0.032-0.02,0.05-0.036V28.03c-0.06,0.009-0.101,0.024-0.124,0.045C4.386,28.097,4.375,28.124,4.375,28.155z"/>
	<linearGradient id="SVGID_6_" gradientUnits="userSpaceOnUse" x1="7.4731" y1="27.7891" x2="7.4731" y2="27.7395">
		<stop offset="0" style="stop-color:#FFFFFF"/>
		<stop offset="0.17" style="stop-color:#F8F8F5"/>
		<stop offset="0.427" style="stop-color:#B2B3AD"/>
		<stop offset="0.4352" style="stop-color:#AEAFA9"/>
		<stop offset="0.5344" style="stop-color:#8A8A85"/>
		<stop offset="0.6334" style="stop-color:#6C6D67"/>
		<stop offset="0.7305" style="stop-color:#52524D"/>
		<stop offset="0.8252" style="stop-color:#3D3C37"/>
		<stop offset="0.9163" style="stop-color:#22211E"/>
		<stop offset="1" style="stop-color:#141311"/>
	</linearGradient>
	
		<rect x="7.423" y="27.701" opacity="0.67" fill-rule="evenodd" clip-rule="evenodd" fill="url(#SVGID_6_)" width="0.1" height="0.084"/>
	<linearGradient id="SVGID_7_" gradientUnits="userSpaceOnUse" x1="7.4731" y1="27.8936" x2="7.4731" y2="27.8422">
		<stop offset="0" style="stop-color:#FFFFFF"/>
		<stop offset="0.17" style="stop-color:#F8F8F5"/>
		<stop offset="0.427" style="stop-color:#B2B3AD"/>
		<stop offset="0.4352" style="stop-color:#AEAFA9"/>
		<stop offset="0.5344" style="stop-color:#8A8A85"/>
		<stop offset="0.6334" style="stop-color:#6C6D67"/>
		<stop offset="0.7305" style="stop-color:#52524D"/>
		<stop offset="0.8252" style="stop-color:#3D3C37"/>
		<stop offset="0.9163" style="stop-color:#22211E"/>
		<stop offset="1" style="stop-color:#141311"/>
	</linearGradient>
	
		<rect x="7.423" y="27.802" opacity="0.67" fill-rule="evenodd" clip-rule="evenodd" fill="url(#SVGID_7_)" width="0.1" height="0.087"/>
	<linearGradient id="SVGID_8_" gradientUnits="userSpaceOnUse" x1="5.4663" y1="28.2461" x2="5.4663" y2="28.1251">
		<stop offset="0" style="stop-color:#FFFFFF"/>
		<stop offset="0.17" style="stop-color:#F8F8F5"/>
		<stop offset="0.427" style="stop-color:#B2B3AD"/>
		<stop offset="0.4352" style="stop-color:#AEAFA9"/>
		<stop offset="0.5344" style="stop-color:#8A8A85"/>
		<stop offset="0.6334" style="stop-color:#6C6D67"/>
		<stop offset="0.7305" style="stop-color:#52524D"/>
		<stop offset="0.8252" style="stop-color:#3D3C37"/>
		<stop offset="0.9163" style="stop-color:#22211E"/>
		<stop offset="1" style="stop-color:#141311"/>
	</linearGradient>
	<path opacity="0.67" fill-rule="evenodd" clip-rule="evenodd" fill="url(#SVGID_8_)" d="M5.388,28.155   c0,0.02,0.005,0.039,0.015,0.056c0.009,0.017,0.025,0.025,0.046,0.025c0.016,0,0.031-0.004,0.047-0.012   c0.016-0.008,0.032-0.02,0.05-0.036V28.03c-0.06,0.009-0.101,0.024-0.124,0.045C5.399,28.097,5.388,28.124,5.388,28.155z"/>
	<linearGradient id="SVGID_9_" gradientUnits="userSpaceOnUse" x1="7.9995" y1="27.9868" x2="7.9995" y2="27.9097">
		<stop offset="0" style="stop-color:#FFFFFF"/>
		<stop offset="0.17" style="stop-color:#F8F8F5"/>
		<stop offset="0.427" style="stop-color:#B2B3AD"/>
		<stop offset="0.4352" style="stop-color:#AEAFA9"/>
		<stop offset="0.5344" style="stop-color:#8A8A85"/>
		<stop offset="0.6334" style="stop-color:#6C6D67"/>
		<stop offset="0.7305" style="stop-color:#52524D"/>
		<stop offset="0.8252" style="stop-color:#3D3C37"/>
		<stop offset="0.9163" style="stop-color:#22211E"/>
		<stop offset="1" style="stop-color:#141311"/>
	</linearGradient>
	
		<rect x="7.861" y="27.849" opacity="0.67" fill-rule="evenodd" clip-rule="evenodd" fill="url(#SVGID_9_)" width="0.277" height="0.131"/>
	<linearGradient id="SVGID_10_" gradientUnits="userSpaceOnUse" x1="7.4136" y1="30.146" x2="7.4136" y2="28.6045">
		<stop offset="0" style="stop-color:#FFFFFF"/>
		<stop offset="0.17" style="stop-color:#F8F8F5"/>
		<stop offset="0.427" style="stop-color:#B2B3AD"/>
		<stop offset="0.4352" style="stop-color:#AEAFA9"/>
		<stop offset="0.5344" style="stop-color:#8A8A85"/>
		<stop offset="0.6334" style="stop-color:#6C6D67"/>
		<stop offset="0.7305" style="stop-color:#52524D"/>
		<stop offset="0.8252" style="stop-color:#3D3C37"/>
		<stop offset="0.9163" style="stop-color:#22211E"/>
		<stop offset="1" style="stop-color:#141311"/>
	</linearGradient>
	<path opacity="0.67" fill-rule="evenodd" clip-rule="evenodd" fill="url(#SVGID_10_)" d="M10.65,27.396H2.994   c0.189,0.899,0.451,1.771,0.749,2.625h8.09C11.354,29.194,10.954,28.318,10.65,27.396z M7.386,27.563L7.444,27.6l-0.021,0.024   v0.061h0.095l0.021-0.034l0.04,0.047l-0.021,0.024v0.064h0.011l0.029-0.037l0.042,0.054H7.558c0,0.054,0.001,0.092,0.002,0.115   L7.523,27.94v-0.034h-0.1v0.098H7.5l0.026-0.041l0.04,0.058H7.423v0.091h0.124l0.029-0.047l0.045,0.064H7.423   c0,0.038,0.001,0.079,0.005,0.122l-0.042,0.02c0.002-0.052,0.003-0.099,0.003-0.142H7.284c-0.016,0-0.029,0.003-0.04,0.01   L7.22,28.112h0.169v-0.091H7.313c-0.014,0-0.024,0.003-0.032,0.01L7.26,28.004h0.129v-0.098H7.313c-0.014,0-0.024,0.003-0.032,0.01   L7.26,27.889h0.129v-0.087H7.275c-0.014,0-0.024,0.003-0.031,0.01l-0.021-0.027h0.167v-0.084H7.318   c-0.014,0-0.025,0.003-0.032,0.01l-0.021-0.027h0.124C7.389,27.637,7.388,27.596,7.386,27.563z M4.236,28.256H4.03v-0.02H4.09   c0.009,0,0.015-0.002,0.019-0.007s0.005-0.011,0.005-0.02v-0.482c0-0.009-0.002-0.016-0.005-0.02   C4.105,27.703,4.099,27.7,4.09,27.7H4.03v-0.02h0.03c0.016,0,0.031-0.002,0.046-0.007c0.014-0.004,0.028-0.011,0.041-0.02h0.005   v0.556c0,0.009,0.002,0.016,0.006,0.02c0.005,0.004,0.01,0.007,0.018,0.007h0.061V28.256z M4.612,28.238   c-0.009,0.012-0.02,0.019-0.034,0.019c-0.012,0-0.022-0.003-0.029-0.01c-0.007-0.006-0.012-0.018-0.016-0.034   c-0.018,0.016-0.034,0.028-0.049,0.036C4.469,28.256,4.451,28.26,4.43,28.26c-0.032,0-0.056-0.01-0.074-0.029   S4.33,28.19,4.33,28.166c0-0.041,0.014-0.074,0.041-0.1c0.027-0.026,0.081-0.044,0.162-0.056V27.97   c0-0.022-0.004-0.041-0.012-0.056s-0.026-0.022-0.054-0.022c-0.03,0-0.051,0.006-0.063,0.019c-0.012,0.013-0.017,0.025-0.013,0.039   c0.003,0.009,0.003,0.018,0,0.027C4.387,27.986,4.38,27.99,4.37,27.99c-0.007,0-0.013-0.003-0.017-0.008   c-0.004-0.006-0.007-0.014-0.007-0.025c0-0.021,0.011-0.04,0.034-0.058s0.051-0.027,0.084-0.027c0.035,0,0.062,0.008,0.079,0.025   c0.018,0.017,0.026,0.041,0.026,0.072v0.223c0,0.018,0.001,0.029,0.004,0.032s0.007,0.005,0.015,0.005   c0.009,0,0.015-0.005,0.018-0.015s0.005-0.024,0.005-0.042h0.013C4.625,28.204,4.621,28.226,4.612,28.238z M4.955,28.256H4.844   v-0.02h0.013c0.009,0,0.015-0.002,0.019-0.007s0.005-0.011,0.005-0.02v-0.226c0-0.027-0.004-0.048-0.013-0.063   s-0.022-0.022-0.039-0.022c-0.016,0-0.032,0.007-0.049,0.02c-0.017,0.014-0.032,0.033-0.046,0.058v0.233   c0,0.009,0.002,0.016,0.007,0.02c0.004,0.004,0.01,0.007,0.017,0.007h0.013v0.02H4.66v-0.02h0.013c0.009,0,0.015-0.002,0.019-0.007   s0.005-0.011,0.005-0.02v-0.291c0-0.006-0.001-0.012-0.003-0.015s-0.006-0.005-0.011-0.005H4.66v-0.02h0.019   c0.009,0,0.018-0.001,0.026-0.003s0.016-0.007,0.023-0.014h0.005v0.078c0.016-0.022,0.032-0.039,0.047-0.05   c0.016-0.012,0.032-0.017,0.05-0.017c0.03,0,0.052,0.01,0.066,0.03c0.014,0.021,0.021,0.051,0.021,0.091v0.216   c0,0.009,0.002,0.016,0.007,0.02s0.01,0.007,0.017,0.007h0.013V28.256z M5.236,28.229c-0.015,0.02-0.035,0.03-0.06,0.03   c-0.026,0-0.046-0.01-0.059-0.03c-0.013-0.021-0.02-0.052-0.02-0.095v-0.236H5.019v-0.02H5.04c0.021,0,0.039-0.008,0.052-0.025   c0.013-0.017,0.021-0.043,0.025-0.079l0.002-0.027h0.016v0.131H5.24v0.02H5.135v0.25c0,0.032,0.004,0.053,0.013,0.064   c0.009,0.012,0.022,0.017,0.04,0.017s0.032-0.007,0.042-0.022c0.01-0.015,0.018-0.036,0.021-0.063l0.013,0.007   C5.261,28.183,5.251,28.209,5.236,28.229z M5.625,28.238c-0.009,0.012-0.02,0.019-0.034,0.019c-0.012,0-0.022-0.003-0.029-0.01   c-0.007-0.006-0.012-0.018-0.016-0.034c-0.018,0.016-0.034,0.028-0.049,0.036c-0.015,0.008-0.033,0.012-0.054,0.012   c-0.032,0-0.056-0.01-0.074-0.029s-0.026-0.041-0.026-0.065c0-0.041,0.014-0.074,0.041-0.1c0.027-0.026,0.081-0.044,0.162-0.056   V27.97c0-0.022-0.004-0.041-0.012-0.056s-0.026-0.022-0.054-0.022c-0.03,0-0.051,0.006-0.063,0.019   C5.404,27.923,5.4,27.936,5.403,27.95c0.003,0.009,0.003,0.018,0,0.027C5.4,27.986,5.393,27.99,5.382,27.99   c-0.007,0-0.013-0.003-0.017-0.008c-0.004-0.006-0.007-0.014-0.007-0.025c0-0.021,0.011-0.04,0.034-0.058s0.051-0.027,0.084-0.027   c0.035,0,0.062,0.008,0.079,0.025c0.018,0.017,0.026,0.041,0.026,0.072v0.223c0,0.018,0.001,0.029,0.004,0.032   s0.007,0.005,0.015,0.005c0.009,0,0.015-0.005,0.018-0.015s0.005-0.024,0.005-0.042h0.013C5.638,28.204,5.633,28.226,5.625,28.238z    M5.953,27.949c-0.004,0.007-0.011,0.01-0.02,0.01s-0.016-0.003-0.02-0.01c-0.004-0.006-0.006-0.016-0.004-0.027   c0-0.007-0.001-0.012-0.002-0.017c-0.002-0.004-0.007-0.007-0.016-0.007c-0.014,0-0.031,0.011-0.051,0.034   c-0.02,0.022-0.038,0.054-0.054,0.095v0.182c0,0.009,0.002,0.016,0.006,0.02s0.01,0.007,0.017,0.007h0.058v0.02H5.672v-0.02h0.053   c0.009,0,0.015-0.002,0.019-0.007s0.005-0.011,0.005-0.02v-0.28c0-0.009-0.002-0.016-0.005-0.022   c-0.004-0.005-0.01-0.008-0.019-0.008H5.672v-0.02h0.021c0.013,0,0.028-0.001,0.045-0.005c0.017-0.003,0.03-0.007,0.039-0.012   h0.008v0.122c0.018-0.036,0.037-0.063,0.057-0.083s0.041-0.029,0.062-0.029c0.018,0,0.031,0.005,0.041,0.015   c0.01,0.01,0.015,0.022,0.015,0.035C5.96,27.934,5.958,27.943,5.953,27.949z M6.698,28.128v0.135c0,0.047-0.019,0.08-0.058,0.098   c-0.001-0.034-0.029-0.058-0.082-0.074v-0.013c0.035,0.004,0.061,0.007,0.077,0.008c0.016,0.001,0.023-0.013,0.023-0.042v-0.111   H6.445c-0.02,0-0.037,0.003-0.053,0.01l-0.021-0.027h0.287c0-0.029-0.001-0.062-0.002-0.098l0.034,0.02l0.071-0.078H6.542   l-0.024,0.01L6.498,27.94h0.261l0.029-0.034l0.047,0.067c-0.025-0.004-0.07,0.019-0.137,0.071l0.026,0.017l-0.026,0.021v0.03h0.177   l0.037-0.047l0.053,0.064H6.698z M6.967,27.926c-0.026,0-0.046,0.014-0.058,0.041c-0.109-0.058-0.179-0.144-0.211-0.256H6.682   c0,0.105,0.001,0.168,0.002,0.188L6.64,27.913c0.002-0.049,0.003-0.111,0.003-0.186c-0.058,0.122-0.15,0.213-0.277,0.276   L6.363,27.99c0.11-0.072,0.191-0.165,0.242-0.279H6.442c-0.02,0-0.037,0.003-0.053,0.01l-0.021-0.027h0.274   c0-0.02-0.001-0.061-0.003-0.121l0.069,0.037l-0.026,0.023v0.061h0.195l0.037-0.047l0.047,0.064h-0.25   c0.044,0.11,0.129,0.177,0.256,0.202V27.926z M7.647,28.29c-0.035,0.014-0.051,0.03-0.048,0.051c-0.049,0.002-0.104,0.002-0.166,0   c-0.062-0.002-0.115-0.014-0.159-0.034c-0.045-0.021-0.082-0.046-0.109-0.078c-0.023,0.043-0.064,0.086-0.124,0.131l-0.008-0.01   c0.045-0.039,0.083-0.089,0.113-0.152c-0.028-0.052-0.049-0.109-0.063-0.172l0.011-0.006c0.018,0.054,0.039,0.101,0.063,0.141   c0.018-0.058,0.03-0.135,0.037-0.229H7.118L7.096,27.97L7.06,27.923l0.032-0.017c0.031-0.065,0.062-0.131,0.089-0.199H7.096   l-0.031,0.01L7.043,27.69h0.14l0.024-0.037l0.037,0.054l-0.029,0.017c-0.03,0.061-0.062,0.125-0.095,0.192h0.071l0.021-0.03   l0.04,0.047l-0.024,0.023c-0.01,0.095-0.026,0.173-0.047,0.236c0.021,0.027,0.052,0.048,0.094,0.064   c0.041,0.016,0.088,0.025,0.141,0.029s0.13,0,0.232-0.008V28.29z M8.298,28.284c-0.032,0.006-0.05,0.024-0.055,0.054   c-0.051-0.02-0.095-0.042-0.131-0.067c-0.036-0.025-0.069-0.059-0.099-0.103c-0.03-0.044-0.053-0.101-0.068-0.17H7.861v0.27   l0.142-0.078l0.005,0.01c-0.091,0.063-0.146,0.11-0.163,0.142l-0.032-0.057c0.007-0.009,0.011-0.022,0.013-0.041v-0.485   c0-0.036-0.001-0.067-0.003-0.094l0.037,0.034h0.134C7.992,27.659,7.977,27.62,7.95,27.58l0.005-0.01   C8,27.594,8.025,27.617,8.031,27.637c0.006,0.02,0,0.041-0.017,0.061h0.119l0.021-0.034l0.042,0.047l-0.024,0.02v0.192   c0,0.025,0.001,0.054,0.002,0.088l-0.037,0.017v-0.03H7.961c0.018,0.059,0.042,0.108,0.071,0.148   c0.077-0.047,0.132-0.092,0.164-0.135l0.039,0.067H8.204c-0.053,0.024-0.106,0.052-0.161,0.081   c0.035,0.041,0.076,0.069,0.123,0.086c0.047,0.017,0.091,0.025,0.133,0.025V28.284z"/>
	<linearGradient id="SVGID_11_" gradientUnits="userSpaceOnUse" x1="7.9995" y1="27.8374" x2="7.9995" y2="27.7683">
		<stop offset="0" style="stop-color:#FFFFFF"/>
		<stop offset="0.17" style="stop-color:#F8F8F5"/>
		<stop offset="0.427" style="stop-color:#B2B3AD"/>
		<stop offset="0.4352" style="stop-color:#AEAFA9"/>
		<stop offset="0.5344" style="stop-color:#8A8A85"/>
		<stop offset="0.6334" style="stop-color:#6C6D67"/>
		<stop offset="0.7305" style="stop-color:#52524D"/>
		<stop offset="0.8252" style="stop-color:#3D3C37"/>
		<stop offset="0.9163" style="stop-color:#22211E"/>
		<stop offset="1" style="stop-color:#141311"/>
	</linearGradient>
	
		<rect x="7.861" y="27.714" opacity="0.67" fill-rule="evenodd" clip-rule="evenodd" fill="url(#SVGID_11_)" width="0.277" height="0.118"/>
	
		<linearGradient id="SVGID_12_" gradientUnits="userSpaceOnUse" x1="21.4028" y1="30.146" x2="21.4028" y2="28.6045" gradientTransform="matrix(-1 0 0 1 61.8262 0)">
		<stop offset="0" style="stop-color:#FFFFFF"/>
		<stop offset="0.17" style="stop-color:#F8F8F5"/>
		<stop offset="0.427" style="stop-color:#B2B3AD"/>
		<stop offset="0.4352" style="stop-color:#AEAFA9"/>
		<stop offset="0.5344" style="stop-color:#8A8A85"/>
		<stop offset="0.6334" style="stop-color:#6C6D67"/>
		<stop offset="0.7305" style="stop-color:#52524D"/>
		<stop offset="0.8252" style="stop-color:#3D3C37"/>
		<stop offset="0.9163" style="stop-color:#22211E"/>
		<stop offset="1" style="stop-color:#141311"/>
	</linearGradient>
	<path opacity="0.86" fill-rule="evenodd" clip-rule="evenodd" fill="url(#SVGID_12_)" d="M37.187,27.396h7.656   c-0.189,0.899-0.451,1.771-0.749,2.625h-8.09C36.483,29.194,36.883,28.318,37.187,27.396z"/>
</g>
<path fill-rule="evenodd" clip-rule="evenodd" d="M45.225,17.566L45.225,17.566c0.504,1.728,0.72,3.528,0.72,5.4  c0,1.944-0.288,3.816-0.72,5.616H2.673V28.51h42.48c0.504-1.8,0.72-3.672,0.72-5.616C45.873,21.022,45.657,19.222,45.225,17.566z"/>
<radialGradient id="SVGID_13_" cx="3.875" cy="18.75" r="27.7885" gradientUnits="userSpaceOnUse">
	<stop offset="0" style="stop-color:#0071BC"/>
	<stop offset="0.0822" style="stop-color:#0069AF"/>
	<stop offset="0.1658" style="stop-color:#0064A7"/>
	<stop offset="0.2416" style="stop-color:#0063A5"/>
	<stop offset="0.3915" style="stop-color:#005D9B"/>
	<stop offset="0.6854" style="stop-color:#004C82"/>
	<stop offset="0.8371" style="stop-color:#004274"/>
	<stop offset="0.9335" style="stop-color:#004274"/>
	<stop offset="0.9682" style="stop-color:#004073"/>
	<stop offset="0.9929" style="stop-color:#003D71"/>
	<stop offset="1" style="stop-color:#003B70"/>
</radialGradient>
<path fill-rule="evenodd" clip-rule="evenodd" fill="url(#SVGID_13_)" d="M2.601,17.494h42.624c0.432,1.728,0.648,3.528,0.648,5.4  c0,1.944-0.216,3.816-0.72,5.616H2.673c-0.504-1.8-0.792-3.672-0.792-5.616C1.881,21.022,2.169,19.222,2.601,17.494z"/>
<linearGradient id="SVGID_14_" gradientUnits="userSpaceOnUse" x1="44.5151" y1="12.8604" x2="33.6863" y2="2.0315">
	<stop offset="0.0056" style="stop-color:#0C0B04"/>
	<stop offset="0.6461" style="stop-color:#43423F"/>
	<stop offset="0.6504" style="stop-color:#474643"/>
	<stop offset="0.655" style="stop-color:#53534F"/>
	<stop offset="0.6596" style="stop-color:#646460"/>
	<stop offset="0.6642" style="stop-color:#7C7C78"/>
	<stop offset="0.6689" style="stop-color:#979894"/>
	<stop offset="0.6736" style="stop-color:#BCBDB8"/>
	<stop offset="0.6783" style="stop-color:#E8E8E2"/>
	<stop offset="0.68" style="stop-color:#FBFAF5"/>
	<stop offset="0.6824" style="stop-color:#F9F8F3"/>
	<stop offset="0.6839" style="stop-color:#F1F0EA"/>
	<stop offset="0.6852" style="stop-color:#E4E4DE"/>
	<stop offset="0.6864" style="stop-color:#D3D3CC"/>
	<stop offset="0.6874" style="stop-color:#BCBDB6"/>
	<stop offset="0.6885" style="stop-color:#A2A29B"/>
	<stop offset="0.6894" style="stop-color:#84847D"/>
	<stop offset="0.69" style="stop-color:#6E6E67"/>
	<stop offset="0.7057" style="stop-color:#5F5F5B"/>
	<stop offset="0.7315" style="stop-color:#4C4B4A"/>
	<stop offset="0.7621" style="stop-color:#373736"/>
	<stop offset="0.7999" style="stop-color:#1F1F1F"/>
	<stop offset="0.8529" style="stop-color:#080808"/>
	<stop offset="1" style="stop-color:#000000"/>
</linearGradient>
<polygon fill-rule="evenodd" clip-rule="evenodd" fill="url(#SVGID_14_)" points="40.185,2.158 44.937,6.91 41.409,10.438   41.625,10.726 39.105,12.742 38.313,13.03 43.497,7.774 39.321,3.598 34.137,8.782 34.353,8.062 "/>
<radialGradient id="SVGID_15_" cx="43.625" cy="2.7495" r="11.6132" gradientUnits="userSpaceOnUse">
	<stop offset="0" style="stop-color:#565550"/>
	<stop offset="1" style="stop-color:#51514C"/>
</radialGradient>
<path fill-rule="evenodd" clip-rule="evenodd" fill="url(#SVGID_15_)" d="M35.433,1.654c4.176,2.232,7.56,5.688,9.864,9.792V1.654  H35.433z"/>
<path fill-rule="evenodd" clip-rule="evenodd" fill="none" stroke="#A8A89D" stroke-width="0.3402" stroke-linecap="round" d="  M35.433,1.654c4.176,2.232,7.56,5.688,9.864,9.792"/>
<path fill-rule="evenodd" clip-rule="evenodd" fill="none" stroke="#C3C3BA" stroke-width="0.2361" stroke-linecap="round" d="  M35.433,1.654c4.104,2.232,7.56,5.688,9.792,9.792"/>
<path fill-rule="evenodd" clip-rule="evenodd" fill="none" stroke="#E1E1D9" stroke-width="0.1324" stroke-linecap="round" d="  M35.361,1.654c4.176,2.232,7.56,5.688,9.864,9.864"/>
<path fill-rule="evenodd" clip-rule="evenodd" fill="none" stroke="#FFFFFF" stroke-width="0.0283" stroke-linecap="round" d="  M35.361,1.654c4.104,2.304,7.56,5.688,9.792,9.864"/>
<linearGradient id="SVGID_16_" gradientUnits="userSpaceOnUse" x1="35.2891" y1="1.5459" x2="45.4409" y2="1.5459">
	<stop offset="0" style="stop-color:#5C5D60"/>
	<stop offset="0.0192" style="stop-color:#5A5B5C"/>
	<stop offset="0.2048" style="stop-color:#474644"/>
	<stop offset="0.4097" style="stop-color:#31312E"/>
	<stop offset="0.6486" style="stop-color:#1C1C1A"/>
	<stop offset="1" style="stop-color:#141311"/>
</linearGradient>
<path fill-rule="evenodd" clip-rule="evenodd" fill="url(#SVGID_16_)" d="M45.297,1.438c0.072,0,0.144,0.072,0.144,0.216l0,0H35.433  h-0.144c0-0.144,0.072-0.216,0.144-0.216H45.297z"/>
<linearGradient id="SVGID_17_" gradientUnits="userSpaceOnUse" x1="45.333" y1="11.6621" x2="45.333" y2="1.438">
	<stop offset="0" style="stop-color:#5C5D60"/>
	<stop offset="0.3855" style="stop-color:#444341"/>
	<stop offset="0.7416" style="stop-color:#242421"/>
	<stop offset="1" style="stop-color:#141311"/>
</linearGradient>
<path fill-rule="evenodd" clip-rule="evenodd" fill="url(#SVGID_17_)" d="M45.441,11.446c0,0.144-0.072,0.216-0.144,0.216  l-0.072-0.144V1.438c0,0,0,0,0.072,0c0.072,0,0.144,0.072,0.144,0.216V11.446z"/>
<g>
	<path fill-rule="evenodd" clip-rule="evenodd" fill="#FFFFFF" d="M39.322,25.661c-1.922,0-3.487-1.177-3.487-2.623   c0-1.446,1.564-2.623,3.487-2.623c1.961,0,3.558,1.177,3.558,2.623C42.88,24.484,41.283,25.661,39.322,25.661L39.322,25.661z    M39.322,21.198c-0.692,0-1.193,0.774-1.193,1.84c0,1.009,0.513,1.769,1.193,1.769c0.647,0,1.193-0.809,1.193-1.769   C40.515,22.023,39.979,21.198,39.322,21.198L39.322,21.198z M17.433,25.661c-1.922,0-3.487-1.177-3.487-2.623   c0-1.383,1.597-2.551,3.487-2.551c1.961,0,3.558,1.144,3.558,2.551C20.991,24.484,19.394,25.661,17.433,25.661L17.433,25.661z    M17.433,21.269c-0.68,0-1.193,0.76-1.193,1.769c0,1.009,0.513,1.769,1.193,1.769c0.647,0,1.193-0.809,1.193-1.769   S18.081,21.269,17.433,21.269L17.433,21.269z M32.933,25.516h-0.019h-2.666l-2.257-4.191l-1.125,0.016l-0.031-0.678l4.927-0.031   l0.031,0.678l-1.256,0.03l1.754,2.907l1.458-2.952l-0.835,0.045l-0.031-0.678l3.413-0.031l0.031,0.678l-1.183,0.03L32.94,25.5   L32.933,25.516L32.933,25.516z M28.12,25.516h-0.031h-5.688h-1.152l-0.03-0.821l1.183-0.03L22.37,21.31l-1.122,0.03l-0.03-0.678   l4.567-0.031l0.031,0.678l-1.183,0.03l0.031,3.354l1.193-0.03c0.388,0,1.409-0.253,1.481-1.412l0.751-0.029l0.031,2.261V25.516   L28.12,25.516z M11.044,25.516h-0.019H8.36l-2.257-4.191L4.977,21.34l-0.03-0.678l4.927-0.031l0.03,0.678L8.65,21.34l1.754,2.907   l1.53-2.952l-0.909,0.045l-0.031-0.678l3.416-0.031l0.03,0.678l-1.185,0.03L11.052,25.5L11.044,25.516L11.044,25.516z"/>
	<path fill="#363639" d="M39.321,20.446c1.944,0,3.528,1.152,3.528,2.592s-1.584,2.592-3.528,2.592   c-1.872,0-3.456-1.152-3.456-2.592S37.449,20.446,39.321,20.446 M39.321,24.838c0.648,0,1.224-0.792,1.224-1.8   c0-1.08-0.576-1.872-1.224-1.872c-0.72,0-1.224,0.792-1.224,1.872C38.097,24.046,38.601,24.838,39.321,24.838 M17.433,20.518   c1.944,0,3.528,1.152,3.528,2.52c0,1.44-1.584,2.592-3.528,2.592c-1.872,0-3.456-1.152-3.456-2.592   C13.977,21.67,15.561,20.518,17.433,20.518 M17.433,24.838c0.648,0,1.224-0.792,1.224-1.8s-0.576-1.8-1.224-1.8   c-0.72,0-1.224,0.792-1.224,1.8S16.713,24.838,17.433,24.838 M36.297,20.662v0.648h-1.152l-2.232,4.176h-2.664l-2.232-4.176h-1.152   v-0.648h4.896v0.648h-1.224l1.728,2.952l1.512-2.952h-0.864v-0.648H36.297 M25.785,20.662v0.648h-1.152v3.384c0,0,0.792,0,1.224,0   s1.44-0.288,1.512-1.44c0.576,0,0.72,0,0.72,0v2.232h-5.688h-1.152v-0.792h1.152V21.31h-1.152v-0.648H25.785 M14.409,20.662v0.648   h-1.152l-2.232,4.176H8.361L6.129,21.31H4.977v-0.648h4.896v0.648H8.649l1.728,2.952l1.584-2.952h-0.936v-0.648H14.409    M39.321,20.386c-1.938,0-3.516,1.19-3.516,2.652c0,1.462,1.577,2.652,3.516,2.652c1.979,0,3.588-1.19,3.588-2.652   C42.909,21.576,41.299,20.386,39.321,20.386L39.321,20.386z M39.321,24.778c-0.664,0-1.164-0.748-1.164-1.74   c0-1.05,0.489-1.812,1.164-1.812c0.642,0,1.164,0.813,1.164,1.812C40.485,23.981,39.952,24.778,39.321,24.778L39.321,24.778z    M17.433,20.458c-1.906,0-3.516,1.182-3.516,2.58c0,1.462,1.577,2.652,3.516,2.652c1.978,0,3.588-1.19,3.588-2.652   C21.021,21.616,19.411,20.458,17.433,20.458L17.433,20.458z M17.433,24.778c-0.664,0-1.164-0.748-1.164-1.74   c0-0.992,0.5-1.74,1.164-1.74c0.631,0,1.164,0.797,1.164,1.74C18.597,23.981,18.064,24.778,17.433,24.778L17.433,24.778z    M36.357,20.602h-0.06h-3.384h-0.06v0.06v0.648v0.06h0.06h0.766l-1.417,2.767l-1.62-2.767h1.12h0.06v-0.06v-0.648v-0.06h-0.06   h-4.896h-0.06v0.06v0.648v0.06h0.06h1.116l2.215,4.144l0.017,0.032h0.036h2.664h0.036l0.017-0.032l2.215-4.144h1.116h0.06v-0.06   v-0.648V20.602L36.357,20.602z M25.845,20.602h-0.06h-4.536h-0.06v0.06v0.648v0.06h0.06h1.092v3.264h-1.092h-0.06v0.06v0.792v0.06   h0.06h1.152h5.688h0.06v-0.06v-2.232v-0.06h-0.06h-0.72h-0.056L27.31,23.25c-0.071,1.135-1.073,1.384-1.453,1.384h-1.164V21.37   h1.092h0.06v-0.06v-0.648V20.602L25.845,20.602z M14.469,20.602h-0.06h-3.384h-0.06v0.06v0.648v0.06h0.06h0.836l-1.486,2.77   l-1.621-2.77h1.119h0.06v-0.06v-0.648v-0.06h-0.06H4.977h-0.06v0.06v0.648v0.06h0.06h1.116l2.215,4.144l0.017,0.032h0.036h2.664   h0.036l0.017-0.032l2.215-4.144h1.116h0.06v-0.06v-0.648V20.602L14.469,20.602z"/>
</g>
<linearGradient id="SVGID_18_" gradientUnits="userSpaceOnUse" x1="7.7671" y1="14.1274" x2="14.2676" y2="22.9196">
	<stop offset="0" style="stop-color:#FFFFFF"/>
	<stop offset="0.1091" style="stop-color:#D3DFF2"/>
	<stop offset="0.3376" style="stop-color:#89AEDC"/>
	<stop offset="0.5419" style="stop-color:#4E90CD"/>
	<stop offset="0.7143" style="stop-color:#007EC3"/>
	<stop offset="0.8481" style="stop-color:#0075BD"/>
	<stop offset="0.927" style="stop-color:#0071BC"/>
	<stop offset="0.9468" style="stop-color:#007AC0"/>
	<stop offset="0.9667" style="stop-color:#3681C3"/>
	<stop offset="0.985" style="stop-color:#4985C6"/>
	<stop offset="1" style="stop-color:#5087C7"/>
</linearGradient>
<path fill="url(#SVGID_18_)" d="M2.679,17.577c-0.432,1.728-0.72,3.528-0.72,5.4c0,0.155,0.053,1.072,0.057,1.226l0.125,1.391  c-0.002-0.112-0.057-2.379-0.057-2.492c0-1.872,0.312-3.608,0.744-5.336l15.083-0.063l6.51-0.125H2.679z"/>
</svg>